<?xml version="1.0" encoding="UTF-8"?>
<svg id="_레이어_1" xmlns="http://www.w3.org/2000/svg" xmlns:xlink="http://www.w3.org/1999/xlink" version="1.1" viewBox="0 0 718 411">
  <!-- Generator: Adobe Illustrator 30.4.0, SVG Export Plug-In . SVG Version: 2.1.4 Build 226)  -->
  <defs>
    <style>
      .st0, .st1 {
        stroke: #fff;
        stroke-miterlimit: 10;
        stroke-width: 4px;
      }

      .st0, .st2 {
        fill: #f0f;
      }

      .st3 {
        fill: url(#_무제_그라디언트);
      }

      .st1, .st4 {
        fill: #fff;
      }
    </style>
    <linearGradient id="_무제_그라디언트" data-name="무제 그라디언트" x1="359" y1="4" x2="359" y2="409" gradientTransform="translate(0 412) scale(1 -1)" gradientUnits="userSpaceOnUse">
      <stop offset="0" stop-color="#cacaca"/>
      <stop offset="1" stop-color="#fff"/>
    </linearGradient>
  </defs>
  <rect class="st3" x="3.5" y="3" width="711" height="405" rx="25" ry="25"/>
  <rect class="st1" x="9" y="8.62" width="700" height="393.75" rx="20" ry="20"/>
  <path class="st0" d="M429.09,25.42h229.06c12.98,0,23.5,10.52,23.5,23.5h0c0,12.98-10.52,23.5-23.5,23.5h-229.06c-12.98,0-23.5-10.52-23.5-23.5h0c0-12.98,10.52-23.5,23.5-23.5Z"/>
  <g>
    <path class="st4" d="M434.58,54.91c-.39-.09-.75-.23-1.07-.4v-2.42c.24.2.53.35.86.46s.67.16,1.02.16c.64,0,1.16-.16,1.56-.49s.6-.76.6-1.29c0-.27-.06-.53-.19-.8s-.33-.58-.61-.94l-1.2-1.48c-.43-.52-.74-1.02-.94-1.51-.2-.49-.3-1-.3-1.55,0-.79.19-1.49.57-2.1.38-.61.9-1.1,1.57-1.45.67-.35,1.42-.53,2.26-.53.45,0,.88.05,1.28.14s.75.23,1.04.4v2.44c-.25-.21-.55-.38-.89-.5-.34-.12-.69-.18-1.05-.18-.63,0-1.13.15-1.5.46-.37.31-.56.72-.56,1.24,0,.25.06.51.18.78s.33.58.62.94l1.2,1.48c.44.52.76,1.02.96,1.51s.3,1,.3,1.55c0,.81-.19,1.54-.58,2.18-.39.64-.92,1.14-1.6,1.5s-1.45.54-2.3.54c-.43,0-.84-.05-1.23-.14Z"/>
    <path class="st4" d="M444.34,54.35c-.69-.44-1.22-1.04-1.61-1.81-.39-.77-.58-1.62-.58-2.55s.2-1.78.59-2.55c.39-.77.93-1.37,1.62-1.81.69-.44,1.46-.66,2.31-.66.68,0,1.29.15,1.84.44.55.29.97.7,1.28,1.22v-1.46h2.62v9.64h-2.62v-1.58c-.31.57-.74,1.01-1.29,1.32-.55.31-1.18.46-1.87.46-.84,0-1.6-.22-2.29-.66ZM448.64,52.41c.38-.25.67-.58.86-.97.19-.39.29-.79.29-1.19v-.54c0-.4-.1-.8-.3-1.19-.2-.39-.49-.71-.87-.96s-.83-.37-1.35-.37-.93.12-1.31.35-.68.56-.89.99c-.21.43-.32.91-.32,1.44,0,.56.11,1.05.32,1.48.21.43.51.76.89.99.38.23.82.35,1.33.35s.97-.13,1.35-.38Z"/>
    <path class="st4" d="M453.93,45.17h2.86l2.68,7.1h-.8l2.82-7.1h2.64l-4.06,9.64h-2.2l-3.94-9.64Z"/>
    <path class="st4" d="M467.21,54.41c-.8-.43-1.42-1.02-1.85-1.77s-.65-1.62-.65-2.59.21-1.85.63-2.62,1.01-1.38,1.77-1.82c.76-.44,1.61-.66,2.54-.66.87,0,1.64.19,2.31.58.67.39,1.2.94,1.58,1.65.38.71.57,1.54.57,2.47,0,.33-.02.69-.06,1.06h-7.86v-1.72h6.66l-1.08.02c0-.43-.09-.79-.27-1.09s-.43-.54-.75-.71-.69-.26-1.12-.26c-.48,0-.91.11-1.29.32s-.67.53-.87.96c-.2.43-.3.92-.3,1.48v.3c0,.61.12,1.14.37,1.59s.61.78,1.09,1.01,1.05.34,1.72.34c.51,0,1-.07,1.49-.2s.91-.33,1.27-.58v2.1c-.36.24-.82.43-1.39.57s-1.14.21-1.73.21c-1.05,0-1.98-.21-2.78-.64Z"/>
    <path class="st4" d="M481.94,54.54c-.66-.34-1.17-.8-1.54-1.38s-.55-1.23-.55-1.95.18-1.37.53-2,.89-1.19,1.61-1.7l1.84-1.34.74,2.04-1.2.94c-.33.25-.58.53-.75.84s-.25.64-.25,1,.08.68.24.97.39.51.69.67.65.24,1.05.24c.32,0,.66-.06,1.01-.18s.66-.31.91-.56l.82-.78,1.44,1.58-.82.78c-.47.43-1.01.76-1.62.99-.61.23-1.25.35-1.92.35-.83,0-1.57-.17-2.23-.51h0ZM481.59,45.1c-.16-.38-.24-.79-.24-1.23,0-.59.16-1.14.48-1.65s.76-.92,1.31-1.21,1.16-.44,1.83-.44,1.27.14,1.81.43.97.67,1.28,1.16.47,1.03.47,1.63c0,.55-.15,1.07-.44,1.57s-.75.96-1.36,1.39l-1.22.84-1.24-1.6,1.16-.84c.29-.21.5-.42.62-.63.12-.21.18-.42.18-.65,0-.33-.12-.62-.37-.85s-.55-.35-.91-.35-.64.12-.88.36-.36.53-.36.88c0,.2.04.39.11.57.07.18.19.37.35.57l8.48,9.76h-3.22l-7.1-8.52c-.33-.41-.58-.81-.74-1.19h0ZM487.39,51.07l4.48-5.4v3.24l-2.64,3.18-1.84-1.02Z"/>
    <path class="st4" d="M498.59,40.81h3.74c.97,0,1.84.2,2.61.6s1.36.95,1.79,1.64c.43.69.64,1.47.64,2.34s-.22,1.65-.65,2.35c-.43.7-1.03,1.25-1.79,1.64s-1.63.59-2.6.59h-1.02v4.84h-2.72s0-14,0-14ZM503.55,47.41c.37-.19.67-.45.88-.8s.32-.75.32-1.22-.11-.86-.32-1.21c-.21-.35-.51-.63-.88-.82s-.81-.29-1.3-.29h-.94v4.62h.94c.49,0,.93-.09,1.3-.28Z"/>
    <path class="st4" d="M509.09,45.17h2.58v2.78l-.18-.18c.16-.84.47-1.5.93-1.99.46-.49,1-.73,1.61-.73.28,0,.52.05.72.16v2.52c-.23-.09-.51-.14-.86-.14-.68,0-1.22.23-1.61.69s-.59,1.08-.59,1.87v4.66h-2.6v-9.64h0Z"/>
    <path class="st4" d="M516.8,42.88c-.3-.3-.45-.66-.45-1.07s.15-.78.45-1.07.67-.43,1.11-.43.79.14,1.09.43c.3.29.45.64.45,1.07s-.15.77-.44,1.07-.66.45-1.1.45-.81-.15-1.11-.45h0ZM516.59,45.17h2.6v9.64h-2.6v-9.64Z"/>
    <path class="st4" d="M521.91,45.17h2.6v1.4c.29-.51.69-.9,1.2-1.18s1.09-.42,1.76-.42,1.25.15,1.75.45.88.73,1.14,1.28.39,1.21.39,1.97v6.14h-2.6v-5.58c0-.69-.14-1.21-.41-1.55-.27-.34-.67-.51-1.19-.51-.41,0-.77.1-1.08.3s-.54.48-.71.84c-.17.36-.25.77-.25,1.24v5.26h-2.6v-9.64h0Z"/>
    <path class="st4" d="M534.23,47.39h-1.86v-2.22h1.86v-3.14h2.58v3.14h2.04v2.22h-2.04v7.42h-2.58v-7.42Z"/>
    <path class="st4" d="M544.83,40.81h7.28v2.34h-4.56v3.34h4.34v2.3h-4.34v6.02h-2.72v-14h0Z"/>
    <path class="st4" d="M555.58,54.35c-.69-.44-1.22-1.04-1.61-1.81s-.58-1.62-.58-2.55.2-1.78.59-2.55.93-1.37,1.62-1.81c.69-.44,1.46-.66,2.31-.66.68,0,1.29.15,1.84.44s.97.7,1.28,1.22v-1.46h2.62v9.64h-2.62v-1.58c-.31.57-.74,1.01-1.29,1.32s-1.18.46-1.87.46c-.84,0-1.6-.22-2.29-.66h0ZM559.88,52.41c.38-.25.67-.58.86-.97s.29-.79.29-1.19v-.54c0-.4-.1-.8-.3-1.19s-.49-.71-.87-.96-.83-.37-1.35-.37-.93.12-1.31.35-.68.56-.89.99-.32.91-.32,1.44c0,.56.11,1.05.32,1.48s.51.76.89.99c.38.23.82.35,1.33.35s.97-.13,1.35-.38Z"/>
    <path class="st4" d="M566.35,39.81h2.6v15h-2.6v-15ZM568.55,49.27l3.82-4.1h3.06l-4.6,4.74.1-1.36,4.48,6.26h-3.06s-3.8-5.54-3.8-5.54Z"/>
    <path class="st4" d="M578.25,54.41c-.8-.43-1.42-1.02-1.85-1.77s-.65-1.62-.65-2.59.21-1.85.63-2.62,1.01-1.38,1.77-1.82,1.61-.66,2.54-.66c.87,0,1.64.19,2.31.58.67.39,1.2.94,1.58,1.65.38.71.57,1.54.57,2.47,0,.33-.02.69-.06,1.06h-7.86v-1.72h6.66l-1.08.02c0-.43-.09-.79-.27-1.09s-.43-.54-.75-.71-.69-.26-1.12-.26c-.48,0-.91.11-1.29.32s-.67.53-.87.96-.3.92-.3,1.48v.3c0,.61.12,1.14.37,1.59s.61.78,1.09,1.01c.48.23,1.05.34,1.72.34.51,0,1-.07,1.49-.2s.91-.33,1.27-.58v2.1c-.36.24-.82.43-1.39.57s-1.14.21-1.73.21c-1.05,0-1.98-.21-2.78-.64Z"/>
    <path class="st4" d="M587.23,39.81h2.6v15h-2.6v-15ZM589.43,49.27l3.82-4.1h3.06l-4.6,4.74.1-1.36,4.48,6.26h-3.06s-3.8-5.54-3.8-5.54Z"/>
    <path class="st4" d="M598.86,54.35c-.69-.44-1.22-1.04-1.61-1.81s-.58-1.62-.58-2.55.2-1.78.59-2.55.93-1.37,1.62-1.81,1.46-.66,2.31-.66c.68,0,1.29.15,1.84.44s.97.7,1.28,1.22v-1.46h2.62v9.64h-2.62v-1.58c-.31.57-.74,1.01-1.29,1.32s-1.18.46-1.87.46c-.84,0-1.6-.22-2.29-.66h0ZM603.16,52.41c.38-.25.67-.58.86-.97s.29-.79.29-1.19v-.54c0-.4-.1-.8-.3-1.19s-.49-.71-.87-.96-.83-.37-1.35-.37c-.49,0-.93.12-1.31.35s-.68.56-.89.99-.32.91-.32,1.44c0,.56.11,1.05.32,1.48s.51.76.89.99c.38.23.82.35,1.33.35s.97-.13,1.35-.38Z"/>
    <path class="st4" d="M609.63,45.17h2.6v1.4c.28-.51.67-.9,1.16-1.18s1.06-.42,1.7-.42c.81,0,1.48.23,2,.69s.87,1.1,1.06,1.91l-.56-.08c.19-.76.59-1.37,1.21-1.83.62-.46,1.34-.69,2.17-.69.65,0,1.22.15,1.71.45.49.3.86.73,1.12,1.29s.39,1.22.39,1.98v6.12h-2.6v-5.58c0-.69-.13-1.21-.38-1.55s-.63-.51-1.12-.51c-.56,0-1.01.22-1.36.65s-.52,1-.52,1.71v5.28h-2.6v-5.58c0-.69-.13-1.21-.38-1.55s-.63-.51-1.12-.51c-.56,0-1.01.22-1.36.65s-.52,1-.52,1.71v5.28h-2.6v-9.64h0Z"/>
    <path class="st4" d="M626.79,45.17h2.6v1.4c.28-.51.67-.9,1.16-1.18s1.06-.42,1.7-.42c.81,0,1.48.23,2,.69s.87,1.1,1.06,1.91l-.56-.08c.19-.76.59-1.37,1.21-1.83.62-.46,1.34-.69,2.17-.69.65,0,1.22.15,1.71.45.49.3.86.73,1.12,1.29s.39,1.22.39,1.98v6.12h-2.6v-5.58c0-.69-.13-1.21-.38-1.55s-.63-.51-1.12-.51c-.56,0-1.01.22-1.36.65s-.52,1-.52,1.71v5.28h-2.6v-5.58c0-.69-.13-1.21-.38-1.55s-.63-.51-1.12-.51c-.56,0-1.01.22-1.36.65s-.52,1-.52,1.71v5.28h-2.6v-9.64h0Z"/>
    <path class="st4" d="M645.85,54.41c-.8-.43-1.42-1.02-1.85-1.77s-.65-1.62-.65-2.59.21-1.85.63-2.62,1.01-1.38,1.77-1.82,1.61-.66,2.54-.66c.87,0,1.64.19,2.31.58s1.2.94,1.58,1.65.57,1.54.57,2.47c0,.33-.02.69-.06,1.06h-7.86v-1.72h6.66l-1.08.02c0-.43-.09-.79-.27-1.09s-.43-.54-.75-.71-.69-.26-1.12-.26c-.48,0-.91.11-1.29.32s-.67.53-.87.96-.3.92-.3,1.48v.3c0,.61.12,1.14.37,1.59s.61.78,1.09,1.01c.48.23,1.05.34,1.72.34.51,0,1-.07,1.49-.2s.91-.33,1.27-.58v2.1c-.36.24-.82.43-1.39.57s-1.14.21-1.73.21c-1.05,0-1.98-.21-2.78-.64Z"/>
    <path class="st4" d="M654.83,45.17h2.58v2.78l-.18-.18c.16-.84.47-1.5.93-1.99s1-.73,1.61-.73c.28,0,.52.05.72.16v2.52c-.23-.09-.51-.14-.86-.14-.68,0-1.22.23-1.61.69s-.59,1.08-.59,1.87v4.66h-2.6s0-9.64,0-9.64Z"/>
  </g>
  <g>
    <path class="st2" d="M413.19,214.39h4.3c.85,0,1.61.15,2.28.46.67.31,1.19.73,1.56,1.28s.56,1.16.56,1.84c0,.49-.09.96-.28,1.4-.19.44-.45.81-.78,1.12s-.71.53-1.14.68c.71.17,1.29.56,1.75,1.15s.69,1.3.69,2.11c0,.76-.21,1.44-.62,2.05s-.98,1.08-1.69,1.41-1.52.5-2.43.5h-4.2v-14h0ZM418.29,219.98c.32-.15.57-.37.75-.66.18-.29.27-.62.27-.99,0-.51-.18-.93-.55-1.26s-.85-.5-1.45-.5h-1.44v3.64h1.36c.39,0,.74-.08,1.06-.23h0ZM418.39,225.95c.35-.17.61-.4.79-.69.18-.29.27-.63.27-1.03,0-.57-.2-1.04-.61-1.41-.41-.37-.94-.55-1.59-.55h-1.38v3.94h1.36c.43,0,.81-.09,1.16-.26Z"/>
    <path class="st2" d="M424.29,218.75h2.58v2.78l-.18-.18c.16-.84.47-1.5.93-1.99s1-.73,1.61-.73c.28,0,.52.05.72.16v2.52c-.23-.09-.51-.14-.86-.14-.68,0-1.22.23-1.61.69-.39.46-.59,1.08-.59,1.87v4.66h-2.6v-9.64h0Z"/>
    <path class="st2" d="M433.43,227.98c-.79-.43-1.4-1.04-1.84-1.81s-.66-1.64-.66-2.6.22-1.83.67-2.6,1.06-1.38,1.85-1.81,1.67-.65,2.64-.65,1.85.22,2.64.65,1.4,1.04,1.85,1.81.67,1.64.67,2.6-.22,1.83-.67,2.6-1.06,1.38-1.85,1.81-1.67.65-2.64.65-1.87-.22-2.66-.65h0ZM437.4,226.01c.38-.24.68-.57.89-1s.32-.91.32-1.44c0-.56-.11-1.05-.32-1.47s-.51-.75-.89-.98-.82-.35-1.31-.35-.95.12-1.33.35c-.38.23-.68.56-.89.98s-.32.91-.32,1.47.11,1.03.32,1.45.51.75.89.99.82.36,1.31.36.95-.12,1.33-.36Z"/>
    <path class="st2" d="M441.95,218.75h2.78l2.32,7.28-.78-.02,2.4-7.26h2l2.4,7.26-.8.02,2.3-7.28h2.6l-3.36,9.64h-2.16l-2.42-7.28h.72l-2.42,7.28h-2.16l-3.42-9.64h0Z"/>
    <path class="st2" d="M458.79,228.47c-.36-.08-.68-.19-.96-.34v-2.08c.2.13.43.24.69.32s.51.12.75.12c.39,0,.69-.09.91-.28s.33-.42.33-.7c0-.36-.18-.73-.54-1.12l-.8-.92c-.49-.61-.74-1.29-.74-2.02,0-.56.14-1.06.43-1.5.29-.44.68-.78,1.19-1.03s1.07-.37,1.7-.37c.36,0,.71.03,1.04.1.33.07.62.17.86.32v2.06c-.19-.13-.4-.24-.65-.31s-.48-.11-.69-.11c-.39,0-.69.09-.91.27-.22.18-.33.42-.33.71,0,.33.18.7.54,1.1l.8.92c.51.63.76,1.3.76,2.02,0,.57-.14,1.08-.42,1.53s-.67.8-1.18,1.05-1.07.38-1.7.38c-.36,0-.72-.04-1.08-.12h0Z"/>
    <path class="st2" d="M467.55,227.99c-.8-.43-1.42-1.02-1.85-1.77s-.65-1.62-.65-2.59.21-1.85.63-2.62,1.01-1.38,1.77-1.82c.76-.44,1.61-.66,2.54-.66.87,0,1.64.19,2.31.58.67.39,1.2.94,1.58,1.65.38.71.57,1.54.57,2.47,0,.33-.02.69-.06,1.06h-7.86v-1.72h6.66l-1.08.02c0-.43-.09-.79-.27-1.09s-.43-.54-.75-.71-.69-.26-1.12-.26c-.48,0-.91.11-1.29.32s-.67.53-.87.96c-.2.43-.3.92-.3,1.48v.3c0,.61.12,1.14.37,1.59s.61.78,1.09,1.01,1.05.34,1.72.34c.51,0,1-.07,1.49-.2.49-.13.91-.33,1.27-.58v2.1c-.36.24-.82.43-1.39.57s-1.14.21-1.73.21c-1.05,0-1.98-.21-2.78-.64h0Z"/>
    <path class="st2" d="M481.55,220.97h-1.86v-2.22h1.86v-3.14h2.58v3.14h2.04v2.22h-2.04v7.42h-2.58v-7.42Z"/>
    <path class="st2" d="M487.95,213.39h2.6v6.76c.29-.51.69-.9,1.2-1.18s1.09-.42,1.76-.42,1.25.15,1.75.45.88.73,1.14,1.28.39,1.21.39,1.97v6.14h-2.6v-5.58c0-.69-.14-1.21-.41-1.55s-.67-.51-1.19-.51c-.41,0-.77.1-1.08.3s-.54.48-.71.84c-.17.36-.25.77-.25,1.24v5.26h-2.6v-15h0Z"/>
    <path class="st2" d="M501.31,227.99c-.8-.43-1.42-1.02-1.85-1.77s-.65-1.62-.65-2.59.21-1.85.63-2.62,1.01-1.38,1.77-1.82c.76-.44,1.61-.66,2.54-.66.87,0,1.64.19,2.31.58.67.39,1.2.94,1.58,1.65.38.71.57,1.54.57,2.47,0,.33-.02.69-.06,1.06h-7.86v-1.72h6.66l-1.08.02c0-.43-.09-.79-.27-1.09s-.43-.54-.75-.71-.69-.26-1.12-.26c-.48,0-.91.11-1.29.32s-.67.53-.87.96c-.2.43-.3.92-.3,1.48v.3c0,.61.12,1.14.37,1.59s.61.78,1.09,1.01,1.05.34,1.72.34c.51,0,1-.07,1.49-.2.49-.13.91-.33,1.27-.58v2.1c-.36.24-.82.43-1.39.57s-1.14.21-1.73.21c-1.05,0-1.98-.21-2.78-.64h0Z"/>
    <path class="st2" d="M514.92,228.49c-.39-.09-.75-.23-1.07-.4v-2.42c.24.2.53.35.86.46s.67.16,1.02.16c.64,0,1.16-.16,1.56-.49s.6-.76.6-1.29c0-.27-.06-.53-.19-.8s-.33-.58-.61-.94l-1.2-1.48c-.43-.52-.74-1.02-.94-1.51-.2-.49-.3-1-.3-1.55,0-.79.19-1.49.57-2.1s.9-1.1,1.57-1.45c.67-.35,1.42-.53,2.26-.53.45,0,.88.05,1.28.14s.75.23,1.04.4v2.44c-.25-.21-.55-.38-.89-.5s-.69-.18-1.05-.18c-.63,0-1.13.15-1.5.46-.37.31-.56.72-.56,1.24,0,.25.06.51.18.78s.33.58.62.94l1.2,1.48c.44.52.76,1.02.96,1.51.2.49.3,1,.3,1.55,0,.81-.19,1.54-.58,2.18s-.92,1.14-1.6,1.5-1.45.54-2.3.54c-.43,0-.84-.05-1.23-.14h0Z"/>
    <path class="st2" d="M524.91,227.94c-.76-.43-1.36-1.03-1.79-1.8s-.65-1.63-.65-2.59.22-1.78.65-2.55,1.03-1.36,1.79-1.79,1.61-.64,2.56-.64c.39,0,.75.03,1.1.1s.65.16.9.28v2.24c-.21-.15-.46-.26-.74-.33-.28-.07-.57-.11-.88-.11-.53,0-1.01.12-1.43.36s-.74.57-.97.99-.34.9-.34,1.45.11,1.05.34,1.48.55.76.97.99c.42.23.9.35,1.43.35.61,0,1.15-.13,1.62-.4v2.22c-.56.27-1.23.4-2,.4-.95,0-1.8-.22-2.56-.65h0Z"/>
    <path class="st2" d="M531.69,218.75h2.58v2.78l-.18-.18c.16-.84.47-1.5.93-1.99s1-.73,1.61-.73c.28,0,.52.05.72.16v2.52c-.23-.09-.51-.14-.86-.14-.68,0-1.22.23-1.61.69s-.59,1.08-.59,1.87v4.66h-2.6v-9.64h0Z"/>
    <path class="st2" d="M540.85,227.99c-.8-.43-1.42-1.02-1.85-1.77s-.65-1.62-.65-2.59.21-1.85.63-2.62,1.01-1.38,1.77-1.82,1.61-.66,2.54-.66c.87,0,1.64.19,2.31.58s1.2.94,1.58,1.65c.38.71.57,1.54.57,2.47,0,.33-.02.69-.06,1.06h-7.86v-1.72h6.66l-1.08.02c0-.43-.09-.79-.27-1.09s-.43-.54-.75-.71-.69-.26-1.12-.26c-.48,0-.91.11-1.29.32s-.67.53-.87.96c-.2.43-.3.92-.3,1.48v.3c0,.61.12,1.14.37,1.59s.61.78,1.09,1.01c.48.23,1.05.34,1.72.34.51,0,1-.07,1.49-.2.49-.13.91-.33,1.27-.58v2.1c-.36.24-.82.43-1.39.57s-1.14.21-1.73.21c-1.05,0-1.98-.21-2.78-.64h0Z"/>
    <path class="st2" d="M551.73,227.99c-.8-.43-1.42-1.02-1.85-1.77s-.65-1.62-.65-2.59.21-1.85.63-2.62,1.01-1.38,1.77-1.82,1.61-.66,2.54-.66c.87,0,1.64.19,2.31.58s1.2.94,1.58,1.65c.38.71.57,1.54.57,2.47,0,.33-.02.69-.06,1.06h-7.86v-1.72h6.66l-1.08.02c0-.43-.09-.79-.27-1.09s-.43-.54-.75-.71-.69-.26-1.12-.26c-.48,0-.91.11-1.29.32s-.67.53-.87.96c-.2.43-.3.92-.3,1.48v.3c0,.61.12,1.14.37,1.59s.61.78,1.09,1.01c.48.23,1.05.34,1.72.34.51,0,1-.07,1.49-.2.49-.13.91-.33,1.27-.58v2.1c-.36.24-.82.43-1.39.57s-1.14.21-1.73.21c-1.05,0-1.98-.21-2.78-.64h0Z"/>
    <path class="st2" d="M560.71,218.75h2.6v1.4c.29-.51.69-.9,1.2-1.18s1.09-.42,1.76-.42,1.25.15,1.75.45.88.73,1.14,1.28.39,1.21.39,1.97v6.14h-2.6v-5.58c0-.69-.14-1.21-.41-1.55s-.67-.51-1.19-.51c-.41,0-.77.1-1.08.3s-.54.48-.71.84c-.17.36-.25.77-.25,1.24v5.26h-2.6v-9.64h0Z"/>
    <path class="st2" d="M384.61,249.93c-.69-.44-1.22-1.04-1.61-1.81s-.58-1.62-.58-2.55.2-1.78.59-2.55c.39-.77.93-1.37,1.62-1.81s1.46-.66,2.31-.66c.68,0,1.29.15,1.84.44.55.29.97.7,1.28,1.22v-1.46h2.62v9.64h-2.62v-1.58c-.31.57-.74,1.01-1.29,1.32-.55.31-1.18.46-1.87.46-.84,0-1.6-.22-2.29-.66ZM388.91,247.99c.38-.25.67-.58.86-.97.19-.39.29-.79.29-1.19v-.54c0-.4-.1-.8-.3-1.19-.2-.39-.49-.71-.87-.96s-.83-.37-1.35-.37c-.49,0-.93.12-1.31.35s-.68.56-.89.99c-.21.43-.32.91-.32,1.44,0,.56.11,1.05.32,1.48.21.43.51.76.89.99.38.23.82.35,1.33.35s.97-.13,1.35-.38h0Z"/>
    <path class="st2" d="M395.38,240.75h2.6v1.4c.29-.51.69-.9,1.2-1.18s1.09-.42,1.76-.42,1.25.15,1.75.45.88.73,1.14,1.28.39,1.21.39,1.97v6.14h-2.6v-5.58c0-.69-.14-1.21-.41-1.55s-.67-.51-1.19-.51c-.41,0-.77.1-1.08.3s-.54.48-.71.84c-.17.36-.25.77-.25,1.24v5.26h-2.6v-9.64h0Z"/>
    <path class="st2" d="M408.43,249.93c-.69-.44-1.22-1.04-1.61-1.81s-.58-1.62-.58-2.55.2-1.78.59-2.55c.39-.77.93-1.37,1.62-1.81s1.46-.66,2.31-.66c.68,0,1.29.15,1.84.44.55.29.97.7,1.28,1.22v-6.82h2.62v15h-2.62v-1.58c-.31.57-.74,1.01-1.29,1.32-.55.31-1.18.46-1.87.46-.84,0-1.6-.22-2.29-.66ZM412.73,247.99c.38-.25.67-.58.86-.97.19-.39.29-.79.29-1.19v-.54c0-.4-.1-.8-.3-1.19-.2-.39-.49-.71-.87-.96s-.83-.37-1.35-.37-.93.12-1.31.35c-.38.23-.68.56-.89.99s-.32.91-.32,1.44c0,.56.11,1.05.32,1.48s.51.76.89.99c.38.23.82.35,1.33.35s.97-.13,1.35-.38h0Z"/>
    <path class="st2" d="M427.32,236.39h2.66l5.68,14h-2.92l-1.54-4.12h.04l-2.9-7.58h.44l-2.92,7.58h.04l-1.64,4.12h-2.76l5.82-14h0ZM425.5,244.99h6.18l.56,2.22h-7.32l.58-2.22h0Z"/>
    <path class="st2" d="M437.02,240.75h2.58v2.78l-.18-.18c.16-.84.47-1.5.93-1.99s1-.73,1.61-.73c.28,0,.52.05.72.16v2.52c-.23-.09-.51-.14-.86-.14-.68,0-1.22.23-1.61.69-.39.46-.59,1.08-.59,1.87v4.66h-2.6v-9.64h0Z"/>
    <path class="st2" d="M444.52,240.75h2.58v2.78l-.18-.18c.16-.84.47-1.5.93-1.99s1-.73,1.61-.73c.28,0,.52.05.72.16v2.52c-.23-.09-.51-.14-.86-.14-.68,0-1.22.23-1.61.69-.39.46-.59,1.08-.59,1.87v4.66h-2.6v-9.64h0Z"/>
    <path class="st2" d="M453.37,249.93c-.69-.44-1.22-1.04-1.61-1.81s-.58-1.62-.58-2.55.2-1.78.59-2.55c.39-.77.93-1.37,1.62-1.81s1.46-.66,2.31-.66c.68,0,1.29.15,1.84.44.55.29.97.7,1.28,1.22v-1.46h2.62v9.64h-2.62v-1.58c-.31.57-.74,1.01-1.29,1.32-.55.31-1.18.46-1.87.46-.84,0-1.6-.22-2.29-.66ZM457.67,247.99c.38-.25.67-.58.86-.97.19-.39.29-.79.29-1.19v-.54c0-.4-.1-.8-.3-1.19-.2-.39-.49-.71-.87-.96s-.83-.37-1.35-.37-.93.12-1.31.35c-.38.23-.68.56-.89.99s-.32.91-.32,1.44c0,.56.11,1.05.32,1.48s.51.76.89.99c.38.23.82.35,1.33.35s.97-.13,1.35-.38h0Z"/>
    <path class="st2" d="M464.14,240.75h2.6v1.4c.29-.51.69-.9,1.2-1.18s1.09-.42,1.76-.42,1.25.15,1.75.45.88.73,1.14,1.28.39,1.21.39,1.97v6.14h-2.6v-5.58c0-.69-.14-1.21-.41-1.55s-.67-.51-1.19-.51c-.41,0-.77.1-1.08.3s-.54.48-.71.84c-.17.36-.25.77-.25,1.24v5.26h-2.6v-9.64h0Z"/>
    <path class="st2" d="M478.1,255.36c-.59-.15-1.06-.36-1.42-.63v-2.28c.37.31.81.54,1.3.7s1.01.24,1.56.24c1.01,0,1.79-.28,2.32-.84s.8-1.37.8-2.44v-2.52l.34.42c-.27.8-.71,1.42-1.32,1.87-.61.45-1.34.67-2.18.67s-1.62-.22-2.3-.66-1.22-1.04-1.61-1.79c-.39-.75-.59-1.6-.59-2.53s.2-1.8.59-2.56c.39-.76.93-1.36,1.62-1.8s1.46-.66,2.31-.66c.69,0,1.31.15,1.85.44.54.29.97.7,1.29,1.22v-1.46h2.6v9.36c0,1.12-.22,2.09-.65,2.92s-1.05,1.46-1.85,1.9c-.8.44-1.73.66-2.8.66-.65,0-1.27-.08-1.86-.23h0ZM481.5,247.97c.39-.25.68-.57.87-.96s.29-.79.29-1.2v-.54c0-.4-.1-.79-.3-1.18s-.49-.7-.88-.95-.84-.37-1.36-.37c-.49,0-.93.12-1.31.35s-.67.56-.88.98-.31.9-.31,1.45.1,1.03.31,1.45.5.75.89.99.83.36,1.32.36c.52,0,.97-.13,1.36-.38h0Z"/>
    <path class="st2" d="M489.88,249.99c-.8-.43-1.42-1.02-1.85-1.77s-.65-1.62-.65-2.59.21-1.85.63-2.62,1.01-1.38,1.77-1.82c.76-.44,1.61-.66,2.54-.66.87,0,1.64.19,2.31.58.67.39,1.2.94,1.58,1.65.38.71.57,1.54.57,2.47,0,.33-.02.69-.06,1.06h-7.86v-1.72h6.66l-1.08.02c0-.43-.09-.79-.27-1.09s-.43-.54-.75-.71c-.32-.17-.69-.26-1.12-.26-.48,0-.91.11-1.29.32s-.67.53-.87.96c-.2.43-.3.92-.3,1.48v.3c0,.61.12,1.14.37,1.59s.61.78,1.09,1.01,1.05.34,1.72.34c.51,0,1-.07,1.49-.2.49-.13.91-.33,1.27-.58v2.1c-.36.24-.82.43-1.39.57-.57.14-1.14.21-1.73.21-1.05,0-1.98-.21-2.78-.64h0Z"/>
    <path class="st2" d="M503.88,242.97h-1.86v-2.22h1.86v-3.14h2.58v3.14h2.04v2.22h-2.04v7.42h-2.58v-7.42Z"/>
    <path class="st2" d="M510.28,235.39h2.6v6.76c.29-.51.69-.9,1.2-1.18s1.09-.42,1.76-.42,1.25.15,1.75.45.88.73,1.14,1.28.39,1.21.39,1.97v6.14h-2.6v-5.58c0-.69-.14-1.21-.41-1.55-.27-.34-.67-.51-1.19-.51-.41,0-.77.1-1.08.3s-.54.48-.71.84c-.17.36-.25.77-.25,1.24v5.26h-2.6v-15h0Z"/>
    <path class="st2" d="M523.64,249.99c-.8-.43-1.42-1.02-1.85-1.77s-.65-1.62-.65-2.59.21-1.85.63-2.62,1.01-1.38,1.77-1.82,1.61-.66,2.54-.66c.87,0,1.64.19,2.31.58s1.2.94,1.58,1.65c.38.71.57,1.54.57,2.47,0,.33-.02.69-.06,1.06h-7.86v-1.72h6.66l-1.08.02c0-.43-.09-.79-.27-1.09s-.43-.54-.75-.71c-.32-.17-.69-.26-1.12-.26-.48,0-.91.11-1.29.32s-.67.53-.87.96c-.2.43-.3.92-.3,1.48v.3c0,.61.12,1.14.37,1.59s.61.78,1.09,1.01c.48.23,1.05.34,1.72.34.51,0,1-.07,1.49-.2.49-.13.91-.33,1.27-.58v2.1c-.36.24-.82.43-1.39.57-.57.14-1.14.21-1.73.21-1.05,0-1.98-.21-2.78-.64h0Z"/>
    <path class="st2" d="M537.15,238.46c-.3-.3-.45-.66-.45-1.07s.15-.78.45-1.07c.3-.29.67-.43,1.11-.43s.79.14,1.09.43c.3.29.45.64.45,1.07s-.15.77-.44,1.07-.66.45-1.1.45-.81-.15-1.11-.45h0ZM536.94,240.75h2.6v9.64h-2.6v-9.64Z"/>
    <path class="st2" d="M542.26,240.75h2.6v1.4c.28-.51.67-.9,1.16-1.18s1.06-.42,1.7-.42c.81,0,1.48.23,2,.69s.87,1.1,1.06,1.91l-.56-.08c.19-.76.59-1.37,1.21-1.83s1.34-.69,2.17-.69c.65,0,1.22.15,1.71.45s.86.73,1.12,1.29.39,1.22.39,1.98v6.12h-2.6v-5.58c0-.69-.13-1.21-.38-1.55s-.63-.51-1.12-.51c-.56,0-1.01.22-1.36.65s-.52,1-.52,1.71v5.28h-2.6v-5.58c0-.69-.13-1.21-.38-1.55s-.63-.51-1.12-.51c-.56,0-1.01.22-1.36.65s-.52,1-.52,1.71v5.28h-2.6v-9.64h0Z"/>
    <path class="st2" d="M561.01,249.93c-.69-.44-1.22-1.04-1.61-1.81s-.58-1.62-.58-2.55.2-1.78.59-2.55.93-1.37,1.62-1.81,1.46-.66,2.31-.66c.68,0,1.29.15,1.84.44.55.29.97.7,1.28,1.22v-1.46h2.62v9.64h-2.62v-1.58c-.31.57-.74,1.01-1.29,1.32-.55.31-1.18.46-1.87.46-.84,0-1.6-.22-2.29-.66h0ZM565.31,247.99c.38-.25.67-.58.86-.97s.29-.79.29-1.19v-.54c0-.4-.1-.8-.3-1.19s-.49-.71-.87-.96-.83-.37-1.35-.37-.93.12-1.31.35c-.38.23-.68.56-.89.99s-.32.91-.32,1.44c0,.56.11,1.05.32,1.48s.51.76.89.99c.38.23.82.35,1.33.35s.97-.13,1.35-.38h0Z"/>
    <path class="st2" d="M574.28,255.36c-.59-.15-1.06-.36-1.42-.63v-2.28c.37.31.81.54,1.3.7s1.01.24,1.56.24c1.01,0,1.79-.28,2.32-.84s.8-1.37.8-2.44v-2.52l.34.42c-.27.8-.71,1.42-1.32,1.87s-1.34.67-2.18.67-1.62-.22-2.3-.66-1.22-1.04-1.61-1.79-.59-1.6-.59-2.53.2-1.8.59-2.56.93-1.36,1.62-1.8,1.46-.66,2.31-.66c.69,0,1.31.15,1.85.44.54.29.97.7,1.29,1.22v-1.46h2.6v9.36c0,1.12-.22,2.09-.65,2.92-.43.83-1.05,1.46-1.85,1.9-.8.44-1.73.66-2.8.66-.65,0-1.27-.08-1.86-.23h0ZM577.68,247.97c.39-.25.68-.57.87-.96s.29-.79.29-1.2v-.54c0-.4-.1-.79-.3-1.18s-.49-.7-.88-.95-.84-.37-1.36-.37c-.49,0-.93.12-1.31.35s-.67.56-.88.98-.31.9-.31,1.45.1,1.03.31,1.45.5.75.89.99.83.36,1.32.36c.52,0,.97-.13,1.36-.38h0Z"/>
    <path class="st2" d="M586.06,249.99c-.8-.43-1.42-1.02-1.85-1.77s-.65-1.62-.65-2.59.21-1.85.63-2.62,1.01-1.38,1.77-1.82,1.61-.66,2.54-.66c.87,0,1.64.19,2.31.58s1.2.94,1.58,1.65c.38.71.57,1.54.57,2.47,0,.33-.02.69-.06,1.06h-7.86v-1.72h6.66l-1.08.02c0-.43-.09-.79-.27-1.09s-.43-.54-.75-.71c-.32-.17-.69-.26-1.12-.26-.48,0-.91.11-1.29.32s-.67.53-.87.96c-.2.43-.3.92-.3,1.48v.3c0,.61.12,1.14.37,1.59s.61.78,1.09,1.01c.48.23,1.05.34,1.72.34.51,0,1-.07,1.49-.2.49-.13.91-.33,1.27-.58v2.1c-.36.24-.82.43-1.39.57-.57.14-1.14.21-1.73.21-1.05,0-1.98-.21-2.78-.64h0Z"/>
    <path class="st2" d="M595.22,250.47c-.36-.08-.68-.19-.96-.34v-2.08c.2.13.43.24.69.32s.51.12.75.12c.39,0,.69-.09.91-.28s.33-.42.33-.7c0-.36-.18-.73-.54-1.12l-.8-.92c-.49-.61-.74-1.29-.74-2.02,0-.56.14-1.06.43-1.5s.68-.78,1.19-1.03,1.07-.37,1.7-.37c.36,0,.71.03,1.04.1.33.07.62.17.86.32v2.06c-.19-.13-.4-.24-.65-.31-.25-.07-.48-.11-.69-.11-.39,0-.69.09-.91.27-.22.18-.33.42-.33.71,0,.33.18.7.54,1.1l.8.92c.51.63.76,1.3.76,2.02,0,.57-.14,1.08-.42,1.53-.28.45-.67.8-1.18,1.05s-1.07.38-1.7.38c-.36,0-.72-.04-1.08-.12h0Z"/>
  </g>
  <g>
    <path class="st2" d="M489.36,111.78l-8.14,7.87v-4.29l10-9.67,10,9.67v4.29l-8.14-7.87v15.25h-3.72v-15.25h0Z"/>
    <path class="st2" d="M481.22,360.04v-4.29l8.14,7.87v-15.25h3.72v15.25l8.14-7.87v4.29l-10,9.67-10-9.67h0Z"/>
  </g>
  <g>
    <path class="st2" d="M665.75,237.36h-15.25v-3.72h15.25l-7.87-8.14h4.29l9.67,10-9.67,10h-4.29l7.87-8.14Z"/>
    <path class="st2" d="M310.59,235.5l9.7-10h4.29l-7.9,8.14h15.28v3.72h-15.28l7.9,8.14h-4.29l-9.7-10Z"/>
  </g>
  <rect class="st0" x="32.37" y="28.2" width="218.8" height="354.6" rx="12" ry="12"/>
  <g>
    <path class="st4" d="M68.87,170.1h3.65v16.8h-3.65v-16.8Z"/>
    <path class="st4" d="M74.6,173.65h3.58v1.9c.38-.69.92-1.23,1.6-1.62s1.47-.59,2.36-.59c1.1,0,2.02.31,2.76.94.74.62,1.22,1.51,1.46,2.66l-.79-.14c.27-1.04.83-1.88,1.67-2.51.84-.63,1.83-.95,2.96-.95.91,0,1.7.21,2.38.64s1.19,1.02,1.55,1.78.54,1.66.54,2.7v8.45h-3.6v-7.68c0-.94-.18-1.65-.53-2.12s-.86-.71-1.51-.71c-.51,0-.96.14-1.36.41-.39.27-.7.65-.92,1.14s-.34,1.05-.34,1.69v7.27h-3.58v-7.68c0-.94-.17-1.65-.52-2.12-.34-.47-.85-.71-1.52-.71-.51,0-.97.14-1.37.41s-.71.65-.92,1.14-.32,1.05-.32,1.69v7.27h-3.58v-13.25h0Z"/>
    <path class="st4" d="M98.95,186.26c-.94-.6-1.68-1.42-2.22-2.47s-.82-2.22-.82-3.52.27-2.47.82-3.53c.54-1.06,1.29-1.89,2.24-2.5s2-.91,3.16-.91c.94,0,1.79.2,2.53.59s1.34.96,1.79,1.69v-1.97h3.6v13.25h-3.6v-2.21c-.45.82-1.04,1.43-1.79,1.85-.74.42-1.6.62-2.56.62-1.17,0-2.22-.3-3.16-.9h.01ZM104.86,183.61c.52-.35.92-.8,1.19-1.34.27-.54.41-1.1.41-1.66v-.74c0-.54-.13-1.08-.4-1.62-.26-.54-.66-.98-1.19-1.32-.53-.34-1.14-.52-1.85-.52s-1.3.16-1.82.48c-.53.32-.94.77-1.22,1.36-.29.58-.43,1.25-.43,2s.15,1.42.44,2.02.7,1.05,1.22,1.38c.52.33,1.12.49,1.79.49.72,0,1.34-.18,1.86-.53Z"/>
    <path class="st4" d="M115.6,190.61c-.77-.18-1.4-.44-1.9-.76v-2.83c.46.37,1.01.64,1.64.83.63.18,1.31.28,2.03.28,1.33,0,2.33-.33,3.01-1,.68-.66,1.02-1.63,1.02-2.89v-2.54l.46.6c-.32,1.02-.89,1.81-1.7,2.35-.82.54-1.79.82-2.93.82s-2.08-.26-2.98-.78-1.6-1.24-2.1-2.16-.76-1.95-.76-3.08.26-2.17.77-3.11c.51-.94,1.22-1.67,2.12-2.2s1.9-.79,2.99-.79c.91,0,1.72.18,2.44.53.71.35,1.28.85,1.69,1.49v-1.7h3.6v10.58c0,1.36-.29,2.54-.86,3.54s-1.39,1.77-2.44,2.3c-1.05.54-2.27.8-3.66.8-.86,0-1.68-.09-2.45-.28h.01ZM119.94,182.22c.48-.29.84-.66,1.09-1.1.25-.45.37-.9.37-1.37v-.67c0-.48-.12-.94-.37-1.39s-.61-.82-1.09-1.1c-.48-.29-1.06-.43-1.73-.43-.62,0-1.18.14-1.67.41s-.86.66-1.13,1.15c-.26.5-.4,1.06-.4,1.7s.13,1.18.4,1.68.64.88,1.13,1.15c.49.27,1.04.41,1.67.41.67,0,1.25-.14,1.73-.43h0Z"/>
    <path class="st4" d="M129.8,186.36c-1.1-.58-1.96-1.4-2.57-2.45s-.91-2.24-.91-3.56.29-2.53.88-3.6c.58-1.07,1.4-1.92,2.44-2.53,1.04-.62,2.21-.92,3.5-.92,1.2,0,2.26.28,3.19.83.93.55,1.65,1.32,2.17,2.29.52.98.78,2.1.78,3.38,0,.34-.03.82-.1,1.44h-10.82l-.02-2.35h9.19l-1.49.02c0-.56-.12-1.06-.36-1.49-.24-.43-.58-.77-1.03-1.01-.45-.24-.96-.36-1.54-.36-.66,0-1.24.15-1.76.46-.52.3-.92.74-1.21,1.32s-.43,1.26-.43,2.04v.41c0,.85.17,1.58.52,2.2.34.62.84,1.08,1.5,1.4.66.32,1.45.48,2.38.48.7,0,1.39-.09,2.05-.28.66-.18,1.25-.45,1.76-.8v2.9c-.51.34-1.16.6-1.93.78-.78.18-1.57.28-2.39.28-1.42,0-2.69-.29-3.79-.88h-.01Z"/>
    <path class="st4" d="M146.19,170.1h3.72l5.26,11.28h-.7l5.28-11.28h3.72l1.85,16.8h-3.62l-1.39-12.89.72.74-4.87,10.54h-2.76l-4.82-10.54.7-.74-1.42,12.89h-3.53l1.87-16.8h-.01Z"/>
    <path class="st4" d="M169.1,186.26c-.94-.6-1.68-1.42-2.22-2.47-.54-1.05-.82-2.22-.82-3.52s.27-2.47.82-3.53c.54-1.06,1.29-1.89,2.24-2.5.95-.61,2-.91,3.16-.91.94,0,1.79.2,2.53.59s1.34.96,1.79,1.69v-1.97h3.6v13.25h-3.6v-2.21c-.45.82-1.04,1.43-1.79,1.85-.74.42-1.6.62-2.56.62-1.17,0-2.22-.3-3.16-.9h0ZM175.01,183.61c.52-.35.92-.8,1.19-1.34s.41-1.1.41-1.66v-.74c0-.54-.13-1.08-.4-1.62-.26-.54-.66-.98-1.19-1.32-.53-.34-1.14-.52-1.85-.52s-1.3.16-1.82.48c-.53.32-.94.77-1.22,1.36-.29.58-.43,1.25-.43,2s.15,1.42.44,2.02.7,1.05,1.22,1.38,1.12.49,1.79.49c.72,0,1.34-.18,1.86-.53Z"/>
    <path class="st4" d="M182.05,169.55h3.58v17.35h-3.58v-17.35ZM185.1,179.29l5.23-5.64h4.22l-6.36,6.53.17-1.92,6.17,8.64h-4.22l-5.21-7.61h0Z"/>
    <path class="st4" d="M196.93,186.36c-1.1-.58-1.96-1.4-2.57-2.45s-.91-2.24-.91-3.56.29-2.53.88-3.6c.58-1.07,1.4-1.92,2.44-2.53,1.04-.62,2.21-.92,3.5-.92,1.2,0,2.26.28,3.19.83.93.55,1.65,1.32,2.17,2.29.52.98.78,2.1.78,3.38,0,.34-.03.82-.1,1.44h-10.82l-.02-2.35h9.19l-1.49.02c0-.56-.12-1.06-.36-1.49-.24-.43-.58-.77-1.03-1.01-.45-.24-.96-.36-1.54-.36-.66,0-1.24.15-1.76.46-.52.3-.92.74-1.21,1.32s-.43,1.26-.43,2.04v.41c0,.85.17,1.58.52,2.2.34.62.84,1.08,1.5,1.4.66.32,1.45.48,2.38.48.7,0,1.39-.09,2.05-.28.66-.18,1.25-.45,1.76-.8v2.9c-.51.34-1.16.6-1.93.78-.78.18-1.57.28-2.39.28-1.42,0-2.69-.29-3.79-.88h-.01Z"/>
    <path class="st4" d="M207.73,173.65h3.55v3.82l-.26-.26c.24-1.15.67-2.06,1.3-2.74.62-.67,1.38-1.01,2.26-1.01.4,0,.73.07.98.22v3.5c-.18-.08-.36-.14-.55-.18s-.41-.06-.65-.06c-.62,0-1.16.14-1.62.43s-.81.7-1.06,1.22c-.25.53-.37,1.15-.37,1.87v6.43h-3.58v-13.25h0Z"/>
    <path class="st4" d="M136.55,215.4c-.82-.41-1.47-.96-1.93-1.67s-.7-1.49-.7-2.35.22-1.68.67-2.46c.45-.78,1.14-1.48,2.09-2.12l2.3-1.51,1.08,2.57-1.56,1.13c-.38.27-.68.58-.88.94-.2.35-.3.73-.3,1.13,0,.61.22,1.11.65,1.5s.99.59,1.68.59c.4,0,.8-.06,1.19-.19s.72-.34,1-.62l1.13-1.03,1.97,2.06-1.13,1.06c-.56.51-1.23.91-2.02,1.19-.78.28-1.59.42-2.42.42-1.06,0-2-.2-2.82-.61v-.03ZM136.13,204.12c-.21-.47-.31-.97-.31-1.5,0-.72.2-1.39.6-2.02.4-.62.96-1.12,1.67-1.48.71-.36,1.49-.54,2.34-.54s1.61.17,2.29.52c.68.34,1.22.82,1.61,1.42.39.6.59,1.26.59,1.98s-.19,1.36-.58,1.97c-.38.61-.94,1.15-1.68,1.63l-1.61,1.08-1.56-2.06,1.51-1.06c.32-.22.54-.45.67-.68s.19-.46.19-.68c0-.38-.14-.71-.42-.97s-.62-.4-1.02-.4c-.43,0-.78.13-1.04.4-.26.26-.4.59-.4.97,0,.21.04.42.11.62.07.21.21.42.42.62l10.54,11.76h-4.34l-8.69-10.15c-.38-.48-.68-.96-.89-1.43h0ZM143.4,210.95l5.62-6.58v4.25l-3.26,3.82-2.35-1.49h0Z"/>
    <path class="st4" d="M85.86,227.7h6.55c1.65,0,3.14.36,4.48,1.09,1.34.73,2.39,1.73,3.16,3.01.77,1.28,1.15,2.71,1.15,4.3s-.38,3.02-1.15,4.3c-.77,1.28-1.82,2.28-3.17,3.01s-2.85,1.09-4.51,1.09h-6.5v-16.8h-.01ZM94.88,240.66c.8-.45,1.43-1.07,1.88-1.87s.68-1.7.68-2.69-.23-1.91-.68-2.7-1.08-1.41-1.88-1.86-1.71-.67-2.74-.67h-2.64v10.46h2.64c1.02,0,1.94-.22,2.74-.67h0Z"/>
    <path class="st4" d="M102.61,231.25h3.58v13.25h-3.58v-13.25ZM103.26,229.57c-.3-.3-.46-.66-.46-1.08,0-.45.15-.82.46-1.12s.69-.44,1.15-.44c.43,0,.8.15,1.12.44.31.3.47.66.47,1.09s-.16.8-.47,1.1-.69.46-1.14.46-.82-.15-1.13-.46h0Z"/>
    <path class="st4" d="M108.77,244.61c-.49-.1-.92-.26-1.31-.47v-2.86c.27.19.58.34.94.44.35.1.7.16,1.03.16.51,0,.92-.12,1.24-.36.31-.24.47-.58.47-1.01,0-.22-.06-.46-.17-.71s-.3-.52-.55-.83l-1.13-1.25c-.66-.82-.98-1.74-.98-2.78,0-.77.2-1.46.59-2.06.39-.61.94-1.08,1.63-1.43s1.48-.52,2.34-.52c.5,0,.97.05,1.43.16.46.1.84.25,1.16.44v2.83c-.24-.18-.53-.32-.86-.42-.34-.1-.67-.16-1.01-.16-.5,0-.9.12-1.21.37s-.47.56-.47.95c0,.46.26.98.77,1.56l1.1,1.25c.35.45.62.9.79,1.34.18.45.26.93.26,1.44,0,.8-.2,1.5-.6,2.11s-.95,1.08-1.64,1.43c-.7.34-1.47.52-2.32.52-.51,0-1.01-.05-1.5-.16v.02Z"/>
    <path class="st4" d="M119.27,243.86c-1.06-.6-1.88-1.42-2.47-2.47-.59-1.05-.89-2.23-.89-3.54s.3-2.49.89-3.54c.59-1.05,1.42-1.87,2.47-2.46,1.06-.59,2.23-.89,3.53-.89.51,0,1.01.04,1.49.13.48.09.9.22,1.27.4v3.07c-.3-.18-.65-.32-1.03-.42-.38-.1-.78-.16-1.2-.16-.75,0-1.41.16-1.98.49s-1.01.78-1.32,1.37c-.31.58-.47,1.26-.47,2.03s.16,1.42.47,2,.75,1.04,1.32,1.37,1.23.49,1.98.49c.82,0,1.56-.19,2.23-.58v3.07c-.78.35-1.7.53-2.76.53-1.3,0-2.47-.3-3.53-.9h0Z"/>
    <path class="st4" d="M126.95,231.25h3.55v3.82l-.26-.26c.24-1.15.67-2.06,1.3-2.74.62-.67,1.38-1.01,2.26-1.01.4,0,.73.07.98.22v3.5c-.18-.08-.36-.14-.55-.18s-.41-.06-.65-.06c-.62,0-1.16.14-1.62.43s-.81.7-1.06,1.22c-.25.53-.37,1.15-.37,1.87v6.43h-3.58v-13.25h0Z"/>
    <path class="st4" d="M135.97,231.25h3.58v13.25h-3.58v-13.25ZM136.62,229.57c-.3-.3-.46-.66-.46-1.08,0-.45.15-.82.46-1.12s.69-.44,1.15-.44c.43,0,.8.15,1.12.44.31.3.47.66.47,1.09s-.16.8-.47,1.1-.69.46-1.14.46-.82-.15-1.13-.46h0Z"/>
    <path class="st4" d="M141.44,231.25h3.58v2.16c.43-.78,1.03-1.39,1.79-1.82s1.63-.65,2.6-.65c1.14,0,2.18.3,3.13.91.95.61,1.7,1.44,2.23,2.48s.8,2.22.8,3.52-.27,2.47-.82,3.53-1.29,1.88-2.23,2.48c-.94.6-2,.9-3.17.9-.96,0-1.82-.2-2.57-.59s-1.34-.94-1.78-1.64v5.69h-3.58v-16.97h.02ZM150.29,241.25c.52-.33.93-.78,1.22-1.37s.44-1.24.44-1.98-.15-1.44-.44-2.03-.7-1.04-1.22-1.37-1.12-.49-1.81-.49-1.32.17-1.84.52-.92.79-1.2,1.33c-.28.54-.42,1.09-.42,1.63v.74c0,.56.14,1.11.42,1.66.28.54.68.99,1.2,1.33s1.13.52,1.84.52,1.29-.16,1.81-.49h0Z"/>
    <path class="st4" d="M157.98,234.13h-2.33v-2.78h2.33v-2.57h3.58v2.57h2.62v2.78h-2.62v10.37h-3.58v-10.37Z"/>
    <path class="st4" d="M165.32,231.25h3.58v13.25h-3.58v-13.25ZM165.97,229.57c-.3-.3-.46-.66-.46-1.08,0-.45.15-.82.46-1.12s.69-.44,1.15-.44c.43,0,.8.15,1.12.44.31.3.47.66.47,1.09s-.16.8-.47,1.1-.69.46-1.14.46-.82-.15-1.13-.46h0Z"/>
    <path class="st4" d="M173.73,243.94c-1.08-.6-1.93-1.43-2.54-2.48-.62-1.06-.92-2.24-.92-3.55s.31-2.52.92-3.59c.62-1.06,1.46-1.9,2.54-2.51,1.08-.61,2.3-.91,3.66-.91s2.53.3,3.61.91,1.92,1.44,2.53,2.51c.61,1.06.91,2.25.91,3.56s-.3,2.5-.91,3.56-1.45,1.9-2.53,2.5-2.28.9-3.61.9-2.58-.3-3.66-.9ZM179.17,241.25c.53-.33.94-.78,1.22-1.36.29-.58.43-1.24.43-1.99s-.14-1.44-.43-2.03-.7-1.04-1.22-1.37c-.53-.33-1.13-.49-1.8-.49s-1.29.16-1.81.48c-.52.32-.93.77-1.22,1.36-.3.58-.44,1.26-.44,2.03s.15,1.42.44,2,.71,1.04,1.24,1.37,1.14.49,1.82.49,1.25-.16,1.78-.49h-.01Z"/>
    <path class="st4" d="M185.79,231.25h3.58v1.9c.42-.69.98-1.23,1.68-1.62s1.51-.59,2.42-.59,1.73.21,2.41.62c.68.42,1.2,1,1.56,1.76s.54,1.66.54,2.7v8.47h-3.6v-7.68c0-.96-.18-1.67-.55-2.14-.37-.46-.92-.7-1.66-.7-.54,0-1.03.14-1.45.41s-.76.66-1,1.15c-.24.5-.36,1.07-.36,1.73v7.22h-3.58v-13.25.02Z"/>
  </g>
</svg>