<?xml version="1.0" encoding="UTF-8"?>
<svg id="_레이어_1" xmlns="http://www.w3.org/2000/svg" xmlns:xlink="http://www.w3.org/1999/xlink" version="1.1" viewBox="0 0 711 406">
  <!-- Generator: Adobe Illustrator 30.4.0, SVG Export Plug-In . SVG Version: 2.1.4 Build 226)  -->
  <defs>
    <style>
      .st0, .st1 {
        stroke: #fff;
        stroke-miterlimit: 10;
        stroke-width: 4px;
      }

      .st0, .st2 {
        fill: #f0f;
      }

      .st3 {
        fill: url(#_무제_그라디언트);
      }

      .st1, .st4 {
        fill: #fff;
      }
    </style>
    <linearGradient id="_무제_그라디언트" data-name="무제 그라디언트" x1="355.5" y1="2" x2="355.5" y2="408" gradientTransform="translate(0 408) scale(1 -1)" gradientUnits="userSpaceOnUse">
      <stop offset="0" stop-color="#cacaca"/>
      <stop offset="1" stop-color="#fff"/>
    </linearGradient>
  </defs>
  <rect class="st3" width="711" height="406" rx="25" ry="25"/>
  <rect class="st1" x="5.5" y="6.12" width="700" height="393.75" rx="20" ry="20"/>
  <g>
    <path class="st2" d="M485.5,120.17l-8.14,7.87v-4.29l10-9.67,10,9.67v4.29l-8.14-7.87v15.25h-3.72v-15.25h0Z"/>
    <path class="st2" d="M477.36,365.25v-4.29l8.14,7.87v-15.25h3.72v15.25l8.14-7.87v4.29l-10,9.67-10-9.67h0Z"/>
  </g>
  <rect class="st0" x="28.87" y="18.58" width="218.8" height="361.72" rx="12" ry="12"/>
  <g>
    <path class="st4" d="M51.61,75.43h3.65v16.8h-3.65s0-16.8,0-16.8Z"/>
    <path class="st4" d="M57.59,78.98h3.58v1.9c.38-.69.92-1.23,1.6-1.62s1.47-.59,2.36-.59c1.1,0,2.02.31,2.76.94.74.62,1.22,1.51,1.46,2.66l-.79-.14c.27-1.04.83-1.88,1.67-2.51.84-.63,1.83-.95,2.96-.95.91,0,1.7.21,2.38.64s1.19,1.02,1.55,1.78.54,1.66.54,2.7v8.45h-3.6v-7.68c0-.94-.18-1.65-.53-2.12s-.86-.71-1.51-.71c-.51,0-.96.14-1.36.41-.39.27-.7.65-.92,1.14s-.34,1.05-.34,1.69v7.27h-3.58v-7.68c0-.94-.17-1.65-.52-2.12-.34-.47-.85-.71-1.52-.71-.51,0-.97.14-1.37.41-.4.27-.71.65-.92,1.14s-.32,1.05-.32,1.69v7.27h-3.58v-13.25h0Z"/>
    <path class="st4" d="M82.18,91.59c-.94-.6-1.68-1.42-2.22-2.47s-.82-2.22-.82-3.52.27-2.47.82-3.53c.54-1.06,1.29-1.89,2.24-2.5s2-.91,3.16-.91c.94,0,1.79.2,2.53.59s1.34.96,1.79,1.69v-1.97h3.6v13.25h-3.6v-2.21c-.45.82-1.04,1.43-1.79,1.85-.74.42-1.6.62-2.56.62-1.17,0-2.22-.3-3.16-.9h.01ZM88.08,88.94c.52-.35.92-.8,1.19-1.34.27-.54.41-1.1.41-1.66v-.74c0-.54-.13-1.08-.4-1.62-.26-.54-.66-.98-1.19-1.32s-1.14-.52-1.85-.52-1.3.16-1.82.48c-.53.32-.94.77-1.22,1.36-.29.58-.43,1.25-.43,2s.15,1.42.44,2.02.7,1.05,1.22,1.38c.52.33,1.12.49,1.79.49.72,0,1.34-.18,1.86-.53Z"/>
    <path class="st4" d="M99.06,95.94c-.77-.18-1.4-.44-1.9-.76v-2.83c.46.37,1.01.64,1.64.83.63.18,1.31.28,2.03.28,1.33,0,2.33-.33,3.01-1,.68-.66,1.02-1.63,1.02-2.89v-2.54l.46.6c-.32,1.02-.89,1.81-1.7,2.35-.82.54-1.79.82-2.93.82s-2.08-.26-2.98-.78-1.6-1.24-2.1-2.16c-.5-.92-.76-1.95-.76-3.08s.26-2.17.77-3.11c.51-.94,1.22-1.67,2.12-2.2s1.9-.79,2.99-.79c.91,0,1.72.18,2.44.53.71.35,1.28.85,1.69,1.49v-1.7h3.6v10.58c0,1.36-.29,2.54-.86,3.54s-1.39,1.77-2.44,2.3c-1.05.54-2.27.8-3.66.8-.86,0-1.68-.09-2.45-.28h.01ZM103.4,87.55c.48-.29.84-.66,1.09-1.1.25-.45.37-.9.37-1.37v-.67c0-.48-.12-.94-.37-1.39s-.61-.82-1.09-1.1c-.48-.29-1.06-.43-1.73-.43-.62,0-1.18.14-1.67.41s-.86.66-1.13,1.15c-.26.5-.4,1.06-.4,1.7s.13,1.18.4,1.68.64.88,1.13,1.15c.49.27,1.04.41,1.67.41.67,0,1.25-.14,1.73-.43h0Z"/>
    <path class="st4" d="M113.51,91.69c-1.1-.58-1.96-1.4-2.57-2.45-.61-1.05-.91-2.24-.91-3.56s.29-2.53.88-3.6c.58-1.07,1.4-1.92,2.44-2.53,1.04-.62,2.21-.92,3.5-.92,1.2,0,2.26.28,3.19.83s1.65,1.32,2.17,2.29c.52.98.78,2.1.78,3.38,0,.34-.03.82-.1,1.44h-10.82l-.02-2.35h9.19l-1.49.02c0-.56-.12-1.06-.36-1.49s-.58-.77-1.03-1.01c-.45-.24-.96-.36-1.54-.36-.66,0-1.24.15-1.76.46-.52.3-.92.74-1.21,1.32s-.43,1.26-.43,2.04v.41c0,.85.17,1.58.52,2.2.34.62.84,1.08,1.5,1.4s1.45.48,2.38.48c.7,0,1.39-.09,2.05-.28.66-.18,1.25-.45,1.76-.8v2.9c-.51.34-1.16.6-1.93.78-.78.18-1.57.28-2.39.28-1.42,0-2.69-.29-3.79-.88h-.01Z"/>
    <path class="st4" d="M130.38,75.43h3.72l5.26,11.28h-.7l5.28-11.28h3.72l1.85,16.8h-3.62l-1.39-12.89.72.74-4.87,10.54h-2.76l-4.82-10.54.7-.74-1.42,12.89h-3.53l1.87-16.8h-.01Z"/>
    <path class="st4" d="M153.53,91.59c-.94-.6-1.68-1.42-2.22-2.47-.54-1.05-.82-2.22-.82-3.52s.27-2.47.82-3.53c.54-1.06,1.29-1.89,2.24-2.5.95-.61,2-.91,3.16-.91.94,0,1.79.2,2.53.59s1.34.96,1.79,1.69v-1.97h3.6v13.25h-3.6v-2.21c-.45.82-1.04,1.43-1.79,1.85-.74.42-1.6.62-2.56.62-1.17,0-2.22-.3-3.16-.9h0ZM159.43,88.94c.52-.35.92-.8,1.19-1.34.27-.54.41-1.1.41-1.66v-.74c0-.54-.13-1.08-.4-1.62-.26-.54-.66-.98-1.19-1.32s-1.14-.52-1.85-.52-1.3.16-1.82.48c-.53.32-.94.77-1.22,1.36-.29.58-.43,1.25-.43,2s.15,1.42.44,2.02.7,1.05,1.22,1.38c.52.33,1.12.49,1.79.49.72,0,1.34-.18,1.86-.53Z"/>
    <path class="st4" d="M166.71,74.88h3.58v17.35h-3.58v-17.35ZM169.76,84.62l5.23-5.64h4.22l-6.36,6.53.17-1.92,6.17,8.64h-4.22l-5.21-7.61h0Z"/>
    <path class="st4" d="M181.83,91.69c-1.1-.58-1.96-1.4-2.57-2.45-.61-1.05-.91-2.24-.91-3.56s.29-2.53.88-3.6c.58-1.07,1.4-1.92,2.44-2.53,1.04-.62,2.21-.92,3.5-.92,1.2,0,2.26.28,3.19.83.93.55,1.65,1.32,2.17,2.29.52.98.78,2.1.78,3.38,0,.34-.03.82-.1,1.44h-10.82l-.02-2.35h9.19l-1.49.02c0-.56-.12-1.06-.36-1.49s-.58-.77-1.03-1.01c-.45-.24-.96-.36-1.54-.36-.66,0-1.24.15-1.76.46-.52.3-.92.74-1.21,1.32s-.43,1.26-.43,2.04v.41c0,.85.17,1.58.52,2.2.34.62.84,1.08,1.5,1.4s1.45.48,2.38.48c.7,0,1.39-.09,2.05-.28.66-.18,1.25-.45,1.76-.8v2.9c-.51.34-1.16.6-1.93.78-.78.18-1.57.28-2.39.28-1.42,0-2.69-.29-3.79-.88h-.01Z"/>
    <path class="st4" d="M192.87,78.98h3.55v3.82l-.26-.26c.24-1.15.67-2.06,1.3-2.74.62-.67,1.38-1.01,2.26-1.01.4,0,.73.07.98.22v3.5c-.18-.08-.36-.14-.55-.18s-.41-.06-.65-.06c-.62,0-1.16.14-1.62.43s-.81.7-1.06,1.22c-.25.53-.37,1.15-.37,1.87v6.43h-3.58v-13.25h0Z"/>
    <path class="st4" d="M53.52,120.73c-.82-.41-1.47-.96-1.93-1.67s-.7-1.49-.7-2.35.22-1.68.67-2.46c.45-.78,1.14-1.48,2.09-2.12l2.3-1.51,1.08,2.57-1.56,1.13c-.38.27-.68.58-.88.94-.2.35-.3.73-.3,1.13,0,.61.22,1.11.65,1.5s.99.59,1.68.59c.4,0,.8-.06,1.19-.19.39-.13.72-.34,1-.62l1.13-1.03,1.97,2.06-1.13,1.06c-.56.51-1.23.91-2.02,1.19-.78.28-1.59.42-2.42.42-1.06,0-2-.2-2.82-.61v-.03ZM53.1,109.45c-.21-.47-.31-.97-.31-1.5,0-.72.2-1.39.6-2.02.4-.62.96-1.12,1.67-1.48s1.49-.54,2.34-.54,1.61.17,2.29.52c.68.34,1.22.82,1.61,1.42s.59,1.26.59,1.98-.19,1.36-.58,1.97c-.38.61-.94,1.15-1.68,1.63l-1.61,1.08-1.56-2.06,1.51-1.06c.32-.22.54-.45.67-.68.13-.23.19-.46.19-.68,0-.38-.14-.71-.42-.97s-.62-.4-1.02-.4c-.43,0-.78.13-1.04.4-.26.26-.4.59-.4.97,0,.21.04.42.11.62.07.21.21.42.42.62l10.54,11.76h-4.34l-8.69-10.15c-.38-.48-.68-.96-.89-1.43h0ZM60.37,116.28l5.62-6.58v4.25l-3.26,3.82-2.35-1.49h0Z"/>
    <path class="st4" d="M72.37,104.23h6.55c1.65,0,3.14.36,4.48,1.09,1.34.73,2.39,1.73,3.16,3.01.77,1.28,1.15,2.71,1.15,4.3s-.38,3.02-1.15,4.3c-.77,1.28-1.82,2.28-3.17,3.01s-2.85,1.09-4.51,1.09h-6.5v-16.8h-.01ZM81.39,117.19c.8-.45,1.43-1.07,1.88-1.87s.68-1.7.68-2.69-.23-1.91-.68-2.7-1.08-1.41-1.88-1.86-1.71-.67-2.74-.67h-2.64v10.46h2.64c1.02,0,1.94-.22,2.74-.67Z"/>
    <path class="st4" d="M89.36,107.78h3.58v13.25h-3.58v-13.25ZM90.01,106.1c-.3-.3-.46-.66-.46-1.08,0-.45.15-.82.46-1.12s.69-.44,1.15-.44c.43,0,.8.15,1.12.44.31.3.47.66.47,1.09s-.16.8-.47,1.1c-.31.3-.69.46-1.14.46s-.82-.15-1.13-.46h0Z"/>
    <path class="st4" d="M95.76,121.14c-.49-.1-.92-.26-1.31-.47v-2.86c.27.19.58.34.94.44.35.1.7.16,1.03.16.51,0,.92-.12,1.24-.36.31-.24.47-.58.47-1.01,0-.22-.06-.46-.17-.71s-.3-.52-.55-.83l-1.13-1.25c-.66-.82-.98-1.74-.98-2.78,0-.77.2-1.46.59-2.06.39-.61.94-1.08,1.63-1.43s1.48-.52,2.34-.52c.5,0,.97.05,1.43.16.46.1.84.25,1.16.44v2.83c-.24-.18-.53-.32-.86-.42-.34-.1-.67-.16-1.01-.16-.5,0-.9.12-1.21.37s-.47.56-.47.95c0,.46.26.98.77,1.56l1.1,1.25c.35.45.62.9.79,1.34.18.45.26.93.26,1.44,0,.8-.2,1.5-.6,2.11s-.95,1.08-1.64,1.43c-.7.34-1.47.52-2.32.52-.51,0-1.01-.05-1.5-.16v.02Z"/>
    <path class="st4" d="M106.5,120.4c-1.06-.6-1.88-1.42-2.47-2.47-.59-1.05-.89-2.23-.89-3.54s.3-2.49.89-3.54,1.42-1.87,2.47-2.46c1.06-.59,2.23-.89,3.53-.89.51,0,1.01.04,1.49.13.48.09.9.22,1.27.4v3.07c-.3-.18-.65-.32-1.03-.42s-.78-.16-1.2-.16c-.75,0-1.41.16-1.98.49s-1.01.78-1.32,1.37c-.31.58-.47,1.26-.47,2.03s.16,1.42.47,2,.75,1.04,1.32,1.37,1.23.49,1.98.49c.82,0,1.56-.19,2.23-.58v3.07c-.78.35-1.7.53-2.76.53-1.3,0-2.47-.3-3.53-.9h0Z"/>
    <path class="st4" d="M114.42,107.78h3.55v3.82l-.26-.26c.24-1.15.67-2.06,1.3-2.74.62-.67,1.38-1.01,2.26-1.01.4,0,.73.07.98.22v3.5c-.18-.08-.36-.14-.55-.18s-.41-.06-.65-.06c-.62,0-1.16.14-1.62.43s-.81.7-1.06,1.22c-.25.53-.37,1.15-.37,1.87v6.43h-3.58v-13.25h0Z"/>
    <path class="st4" d="M123.68,107.78h3.58v13.25h-3.58s0-13.25,0-13.25ZM124.33,106.1c-.3-.3-.46-.66-.46-1.08,0-.45.15-.82.46-1.12s.69-.44,1.15-.44c.43,0,.8.15,1.12.44.31.3.47.66.47,1.09s-.16.8-.47,1.1c-.31.3-.69.46-1.14.46s-.82-.15-1.13-.46h0Z"/>
    <path class="st4" d="M129.39,107.78h3.58v2.16c.43-.78,1.03-1.39,1.79-1.82s1.63-.65,2.6-.65c1.14,0,2.18.3,3.13.91.95.61,1.7,1.44,2.23,2.48s.8,2.22.8,3.52-.27,2.47-.82,3.53-1.29,1.88-2.23,2.48c-.94.6-2,.9-3.17.9-.96,0-1.82-.2-2.57-.59s-1.34-.94-1.78-1.64v5.69h-3.58v-16.97h.02ZM138.24,117.78c.52-.33.93-.78,1.22-1.37s.44-1.24.44-1.98-.15-1.44-.44-2.03-.7-1.04-1.22-1.37-1.12-.49-1.81-.49-1.32.17-1.84.52-.92.79-1.2,1.33-.42,1.09-.42,1.63v.74c0,.56.14,1.11.42,1.66.28.54.68.99,1.2,1.33.52.34,1.13.52,1.84.52s1.29-.16,1.81-.49Z"/>
    <path class="st4" d="M146.17,110.66h-2.33v-2.78h2.33v-2.57h3.58v2.57h2.62v2.78h-2.62v10.37h-3.58v-10.37Z"/>
    <path class="st4" d="M153.75,107.78h3.58v13.25h-3.58v-13.25ZM154.4,106.1c-.3-.3-.46-.66-.46-1.08,0-.45.15-.82.46-1.12s.69-.44,1.15-.44c.43,0,.8.15,1.12.44.31.3.47.66.47,1.09s-.16.8-.47,1.1c-.31.3-.69.46-1.14.46s-.82-.15-1.13-.46h0Z"/>
    <path class="st4" d="M162.4,120.47c-1.08-.6-1.93-1.43-2.54-2.48-.62-1.06-.92-2.24-.92-3.55s.31-2.52.92-3.59c.62-1.06,1.46-1.9,2.54-2.51,1.08-.61,2.3-.91,3.66-.91s2.53.3,3.61.91,1.92,1.44,2.53,2.51c.61,1.06.91,2.25.91,3.56s-.3,2.5-.91,3.56-1.45,1.9-2.53,2.5-2.28.9-3.61.9-2.58-.3-3.66-.9ZM167.84,117.78c.53-.33.94-.78,1.22-1.36.29-.58.43-1.24.43-1.99s-.14-1.44-.43-2.03-.7-1.04-1.22-1.37c-.53-.33-1.13-.49-1.8-.49s-1.29.16-1.81.48-.93.77-1.22,1.36c-.3.58-.44,1.26-.44,2.03s.15,1.42.44,2,.71,1.04,1.24,1.37,1.14.49,1.82.49,1.25-.16,1.78-.49h-.01Z"/>
    <path class="st4" d="M174.7,107.78h3.58v1.9c.42-.69.98-1.23,1.68-1.62s1.51-.59,2.42-.59,1.73.21,2.41.62c.68.42,1.2,1,1.56,1.76s.54,1.66.54,2.7v8.47h-3.6v-7.68c0-.96-.18-1.67-.55-2.14-.37-.46-.92-.7-1.66-.7-.54,0-1.03.14-1.45.41-.42.27-.76.66-1,1.15-.24.5-.36,1.07-.36,1.73v7.22h-3.58v-13.25.02Z"/>
  </g>
  <g>
    <path class="st4" d="M52.79,313.3h3.72l5.26,11.28h-.7l5.28-11.28h3.72l1.85,16.8h-3.62l-1.39-12.89.72.74-4.87,10.54h-2.76l-4.82-10.54.7-.74-1.42,12.89h-3.53l1.87-16.8h-.01Z"/>
    <path class="st4" d="M75.94,329.46c-.94-.6-1.68-1.42-2.22-2.47s-.82-2.22-.82-3.52.27-2.47.82-3.53c.54-1.06,1.29-1.89,2.24-2.5s2-.91,3.16-.91c.94,0,1.79.2,2.53.59.74.39,1.34.96,1.79,1.69v-1.97h3.6v13.25h-3.6v-2.21c-.45.82-1.04,1.43-1.79,1.85-.74.42-1.6.62-2.56.62-1.17,0-2.22-.3-3.16-.9h.01ZM81.84,326.81c.52-.35.92-.8,1.19-1.34.27-.54.41-1.1.41-1.66v-.74c0-.54-.13-1.08-.4-1.62-.26-.54-.66-.98-1.19-1.32s-1.14-.52-1.85-.52-1.3.16-1.82.48c-.53.32-.94.77-1.22,1.36-.29.58-.43,1.25-.43,2s.15,1.42.44,2.02.7,1.05,1.22,1.38c.52.33,1.12.49,1.79.49.72,0,1.34-.18,1.86-.53Z"/>
    <path class="st4" d="M89.12,312.75h3.58v17.35h-3.58v-17.35ZM92.17,322.49l5.23-5.64h4.22l-6.36,6.53.17-1.92,6.17,8.64h-4.22l-5.21-7.61Z"/>
    <path class="st4" d="M104.24,329.56c-1.1-.58-1.96-1.4-2.57-2.45-.61-1.05-.91-2.24-.91-3.56s.29-2.53.88-3.6c.58-1.07,1.4-1.92,2.44-2.53,1.04-.62,2.21-.92,3.5-.92,1.2,0,2.26.28,3.19.83s1.65,1.32,2.17,2.29c.52.98.78,2.1.78,3.38,0,.34-.03.82-.1,1.44h-10.82l-.02-2.35h9.19l-1.49.02c0-.56-.12-1.06-.36-1.49s-.58-.77-1.03-1.01c-.45-.24-.96-.36-1.54-.36-.66,0-1.24.15-1.76.46-.52.3-.92.74-1.21,1.32s-.43,1.26-.43,2.04v.41c0,.85.17,1.58.52,2.2.34.62.84,1.08,1.5,1.4s1.45.48,2.38.48c.7,0,1.39-.09,2.05-.28.66-.18,1.25-.45,1.76-.8v2.9c-.51.34-1.16.6-1.93.78-.78.18-1.57.28-2.39.28-1.42,0-2.69-.29-3.79-.88h-.01Z"/>
    <path class="st4" d="M121.8,329.8c-.82-.41-1.47-.96-1.93-1.67s-.7-1.49-.7-2.35.22-1.68.67-2.46,1.14-1.48,2.09-2.12l2.3-1.51,1.08,2.57-1.56,1.13c-.38.27-.68.58-.88.94-.2.35-.3.73-.3,1.13,0,.61.22,1.11.65,1.5s.99.59,1.68.59c.4,0,.8-.06,1.19-.19s.72-.34,1-.62l1.13-1.03,1.97,2.06-1.13,1.06c-.56.51-1.23.91-2.02,1.19-.78.28-1.59.42-2.42.42-1.06,0-2-.2-2.82-.61v-.03ZM121.38,318.52c-.21-.47-.31-.97-.31-1.5,0-.72.2-1.39.6-2.02.4-.62.96-1.12,1.67-1.48.71-.36,1.49-.54,2.34-.54s1.61.17,2.29.52c.68.34,1.22.82,1.61,1.42s.59,1.26.59,1.98-.19,1.36-.58,1.97c-.38.61-.94,1.15-1.68,1.63l-1.61,1.08-1.56-2.06,1.51-1.06c.32-.22.54-.45.67-.68.13-.23.19-.46.19-.68,0-.38-.14-.71-.42-.97s-.62-.4-1.02-.4c-.43,0-.78.13-1.04.4-.26.26-.4.59-.4.97,0,.21.04.42.11.62.07.21.21.42.42.62l10.54,11.76h-4.34l-8.69-10.15c-.38-.48-.68-.96-.89-1.43h0ZM128.65,325.35l5.62-6.58v4.25l-3.26,3.82-2.35-1.49h0Z"/>
    <path class="st4" d="M51.61,342.1h5.52c1.07,0,2.03.21,2.87.62.84.41,1.5,1,1.97,1.74s.71,1.58.71,2.51-.25,1.76-.74,2.5c-.5.74-1.17,1.31-2.03,1.73s-1.84.62-2.96.62h-.31l-1.39-1.58v-.98h1.56c.45,0,.84-.09,1.19-.28.34-.18.61-.44.8-.77s.29-.71.29-1.14c0-.62-.21-1.14-.62-1.54-.42-.4-.97-.6-1.66-.6h-1.54v13.97h-3.65v-16.8h-.01ZM54.8,349.9l3.84-.1,5.62,9.1h-4.13s-5.33-9-5.33-9Z"/>
    <path class="st4" d="M66.96,358.26c-.94-.6-1.68-1.42-2.22-2.47s-.82-2.22-.82-3.52.27-2.47.82-3.53c.54-1.06,1.29-1.89,2.24-2.5s2-.91,3.16-.91c.94,0,1.79.2,2.53.59.74.39,1.34.96,1.79,1.69v-1.97h3.6v13.25h-3.6v-2.21c-.45.82-1.04,1.43-1.79,1.85-.74.42-1.6.62-2.56.62-1.17,0-2.22-.3-3.16-.9h.01ZM72.86,355.61c.52-.35.92-.8,1.19-1.34.27-.54.41-1.1.41-1.66v-.74c0-.54-.13-1.08-.4-1.62-.26-.54-.66-.98-1.19-1.32s-1.14-.52-1.85-.52-1.3.16-1.82.48c-.53.32-.94.77-1.22,1.36-.29.58-.43,1.25-.43,2s.15,1.42.44,2.02.7,1.05,1.22,1.38c.52.33,1.12.49,1.79.49.72,0,1.34-.18,1.86-.53Z"/>
    <path class="st4" d="M80.15,345.65h3.58v1.9c.42-.69.98-1.23,1.68-1.62.7-.39,1.51-.59,2.42-.59s1.73.21,2.41.62c.68.42,1.2,1,1.56,1.76s.54,1.66.54,2.7v8.47h-3.6v-7.68c0-.96-.18-1.67-.55-2.14-.37-.46-.92-.7-1.66-.7-.54,0-1.03.14-1.45.41s-.76.66-1,1.15c-.24.5-.36,1.07-.36,1.73v7.22h-3.58v-13.25.02Z"/>
    <path class="st4" d="M96.86,358.26c-.94-.6-1.68-1.42-2.22-2.47s-.82-2.22-.82-3.52.27-2.47.82-3.53c.54-1.06,1.29-1.89,2.24-2.5s2-.91,3.16-.91c.94,0,1.79.2,2.53.59.74.39,1.34.96,1.79,1.69v-6.07h3.6v17.35h-3.6v-2.21c-.45.82-1.04,1.43-1.79,1.85-.74.42-1.6.62-2.56.62-1.17,0-2.22-.3-3.16-.9h.01ZM102.77,355.61c.52-.35.92-.8,1.19-1.34.27-.54.41-1.1.41-1.66v-.74c0-.54-.13-1.08-.4-1.62-.26-.54-.66-.98-1.19-1.32s-1.14-.52-1.85-.52-1.3.16-1.82.48c-.53.32-.94.77-1.22,1.36-.29.58-.43,1.25-.43,2s.15,1.42.44,2.02.7,1.05,1.22,1.38c.52.33,1.12.49,1.79.49.72,0,1.34-.18,1.86-.53Z"/>
    <path class="st4" d="M112.99,358.33c-1.08-.6-1.93-1.43-2.54-2.48-.62-1.06-.92-2.24-.92-3.55s.31-2.52.92-3.59c.62-1.06,1.46-1.9,2.54-2.51,1.08-.61,2.3-.91,3.66-.91s2.53.3,3.61.91c1.08.61,1.92,1.44,2.53,2.51.61,1.06.91,2.25.91,3.56s-.3,2.5-.91,3.56-1.45,1.9-2.53,2.5-2.28.9-3.61.9-2.58-.3-3.66-.9ZM118.43,355.65c.53-.33.94-.78,1.22-1.36.29-.58.43-1.24.43-1.99s-.14-1.44-.43-2.03-.7-1.04-1.22-1.37c-.53-.33-1.13-.49-1.8-.49s-1.29.16-1.81.48-.93.77-1.22,1.36c-.3.58-.44,1.26-.44,2.03s.15,1.42.44,2,.71,1.04,1.24,1.37,1.14.49,1.82.49,1.25-.16,1.78-.49h0Z"/>
    <path class="st4" d="M125.29,345.65h3.58v1.9c.38-.69.92-1.23,1.6-1.62.68-.39,1.47-.59,2.36-.59,1.1,0,2.02.31,2.76.94.74.62,1.22,1.51,1.46,2.66l-.79-.14c.27-1.04.83-1.88,1.67-2.51s1.83-.95,2.96-.95c.91,0,1.7.21,2.38.64s1.19,1.02,1.55,1.78.54,1.66.54,2.7v8.45h-3.6v-7.68c0-.94-.18-1.65-.53-2.12s-.86-.71-1.51-.71c-.51,0-.96.14-1.36.41-.39.27-.7.65-.92,1.14-.22.49-.34,1.05-.34,1.69v7.27h-3.58v-7.68c0-.94-.17-1.65-.52-2.12-.34-.47-.85-.71-1.52-.71-.51,0-.97.14-1.37.41s-.71.65-.92,1.14-.32,1.05-.32,1.69v7.27h-3.58v-13.25h0Z"/>
    <path class="st4" d="M152.02,342.1h3.65v16.8h-3.65v-16.8Z"/>
    <path class="st4" d="M158,345.65h3.58v1.9c.38-.69.92-1.23,1.6-1.62.68-.39,1.47-.59,2.36-.59,1.1,0,2.02.31,2.76.94.74.62,1.22,1.51,1.46,2.66l-.79-.14c.27-1.04.83-1.88,1.67-2.51s1.83-.95,2.96-.95c.91,0,1.7.21,2.38.64s1.19,1.02,1.55,1.78.54,1.66.54,2.7v8.45h-3.6v-7.68c0-.94-.18-1.65-.53-2.12s-.86-.71-1.51-.71c-.51,0-.96.14-1.36.41-.39.27-.7.65-.92,1.14-.22.49-.34,1.05-.34,1.69v7.27h-3.58v-7.68c0-.94-.17-1.65-.52-2.12-.34-.47-.85-.71-1.52-.71-.51,0-.97.14-1.37.41s-.71.65-.92,1.14-.32,1.05-.32,1.69v7.27h-3.58v-13.25h0Z"/>
    <path class="st4" d="M182.59,358.26c-.94-.6-1.68-1.42-2.22-2.47-.54-1.05-.82-2.22-.82-3.52s.27-2.47.82-3.53c.54-1.06,1.29-1.89,2.24-2.5.95-.61,2-.91,3.16-.91.94,0,1.79.2,2.53.59.74.39,1.34.96,1.79,1.69v-1.97h3.6v13.25h-3.6v-2.21c-.45.82-1.04,1.43-1.79,1.85-.74.42-1.6.62-2.56.62-1.17,0-2.22-.3-3.16-.9h0ZM188.49,355.61c.52-.35.92-.8,1.19-1.34s.41-1.1.41-1.66v-.74c0-.54-.13-1.08-.4-1.62-.26-.54-.66-.98-1.19-1.32s-1.14-.52-1.85-.52-1.3.16-1.82.48c-.53.32-.94.77-1.22,1.36-.29.58-.43,1.25-.43,2s.15,1.42.44,2.02.7,1.05,1.22,1.38c.52.33,1.12.49,1.79.49.72,0,1.34-.18,1.86-.53Z"/>
    <path class="st4" d="M199.47,362.61c-.77-.18-1.4-.44-1.9-.76v-2.83c.46.37,1.01.64,1.64.83.63.18,1.31.28,2.03.28,1.33,0,2.33-.33,3.01-1,.68-.66,1.02-1.63,1.02-2.89v-2.54l.46.6c-.32,1.02-.89,1.81-1.7,2.35-.82.54-1.79.82-2.93.82s-2.08-.26-2.98-.78-1.6-1.24-2.1-2.16-.76-1.95-.76-3.08.26-2.17.77-3.11c.51-.94,1.22-1.67,2.12-2.2s1.9-.79,2.99-.79c.91,0,1.72.18,2.44.53.71.35,1.28.85,1.69,1.49v-1.7h3.6v10.58c0,1.36-.29,2.54-.86,3.54s-1.39,1.77-2.44,2.3c-1.05.54-2.27.8-3.66.8-.86,0-1.68-.09-2.45-.28h0ZM203.82,354.22c.48-.29.84-.66,1.09-1.1.25-.45.37-.9.37-1.37v-.67c0-.48-.12-.94-.37-1.39s-.61-.82-1.09-1.1c-.48-.29-1.06-.43-1.73-.43-.62,0-1.18.14-1.67.41s-.86.66-1.13,1.15c-.26.5-.4,1.06-.4,1.7s.13,1.18.4,1.68.64.88,1.13,1.15,1.04.41,1.67.41c.67,0,1.25-.14,1.73-.43h0Z"/>
    <path class="st4" d="M213.92,358.36c-1.1-.58-1.96-1.4-2.57-2.45-.61-1.05-.91-2.24-.91-3.56s.29-2.53.88-3.6c.58-1.07,1.4-1.92,2.44-2.53,1.04-.62,2.21-.92,3.5-.92,1.2,0,2.26.28,3.19.83.93.55,1.65,1.32,2.17,2.29.52.98.78,2.1.78,3.38,0,.34-.03.82-.1,1.44h-10.82l-.02-2.35h9.19l-1.49.02c0-.56-.12-1.06-.36-1.49s-.58-.77-1.03-1.01c-.45-.24-.96-.36-1.54-.36-.66,0-1.24.15-1.76.46-.52.3-.92.74-1.21,1.32s-.43,1.26-.43,2.04v.41c0,.85.17,1.58.52,2.2.34.62.84,1.08,1.5,1.4s1.45.48,2.38.48c.7,0,1.39-.09,2.05-.28.66-.18,1.25-.45,1.76-.8v2.9c-.51.34-1.16.6-1.93.78-.78.18-1.57.28-2.39.28-1.42,0-2.69-.29-3.79-.88h-.01Z"/>
  </g>
  <g>
    <circle class="st4" cx="58.78" cy="48.14" r="13.32"/>
    <path class="st2" d="M57.7,45.79l-2.77,1.5v-2.63l5.48-3.02v13h-2.71v-8.86h0Z"/>
  </g>
  <g>
    <circle class="st4" cx="60.41" cy="288.74" r="13.32" transform="translate(-230.77 336) rotate(-87.4)"/>
    <path class="st2" d="M61,288.02c.15-.37.22-.73.22-1.07,0-.52-.18-.93-.54-1.23-.36-.3-.84-.45-1.45-.45-.41,0-.78.07-1.12.21s-.64.35-.89.64v-2.06c.33-.26.71-.46,1.15-.6.44-.14.92-.22,1.43-.22.73,0,1.38.15,1.95.44s1.02.7,1.34,1.22.49,1.11.49,1.78c0,.57-.13,1.16-.38,1.75-.26.6-.67,1.23-1.25,1.91l-1.94,2.48-.32-.65h4.42v2.08h-7.37l3.55-4.98c.33-.45.57-.86.72-1.24h-.01Z"/>
  </g>
  <g>
    <g>
      <path class="st2" d="M662.53,259.98h-15.25v-3.72h15.25l-7.87-8.14h4.29l9.67,10-9.67,10h-4.29l7.87-8.14h0Z"/>
      <path class="st2" d="M306.09,258.11l9.7-10h4.29l-7.9,8.14h15.28v3.72h-15.28l7.9,8.14h-4.29l-9.7-10h0Z"/>
    </g>
    <g>
      <path class="st2" d="M393.72,237.6h5.16c1.02,0,1.94.18,2.74.55.8.37,1.42.88,1.87,1.54.45.66.67,1.39.67,2.21,0,.59-.11,1.15-.34,1.68-.22.53-.54.98-.94,1.34-.4.37-.86.64-1.37.82.85.21,1.55.67,2.1,1.38.55.71.83,1.56.83,2.53,0,.91-.25,1.73-.74,2.46-.5.73-1.17,1.29-2.03,1.69-.86.4-1.83.6-2.92.6h-5.04v-16.8h.01ZM399.84,244.31c.38-.18.68-.45.9-.79s.32-.74.32-1.19c0-.61-.22-1.11-.66-1.51s-1.02-.6-1.74-.6h-1.73v4.37h1.63c.46,0,.89-.09,1.27-.28h.01ZM399.96,251.48c.42-.21.73-.48.95-.83.22-.34.32-.76.32-1.24,0-.69-.24-1.25-.73-1.69s-1.12-.66-1.91-.66h-1.66v4.73h1.63c.51,0,.98-.1,1.39-.31h0Z"/>
      <path class="st2" d="M407.04,242.84h3.1v3.34l-.22-.22c.19-1.01.56-1.8,1.12-2.39.55-.58,1.2-.88,1.93-.88.34,0,.62.06.86.19v3.02c-.27-.11-.62-.17-1.03-.17-.82,0-1.46.28-1.93.83s-.71,1.3-.71,2.24v5.59h-3.12v-11.57.02Z"/>
      <path class="st2" d="M418.01,253.91c-.94-.52-1.68-1.24-2.21-2.17s-.79-1.97-.79-3.12.27-2.19.8-3.12,1.28-1.65,2.22-2.17,2-.78,3.17-.78,2.22.26,3.17.78c.94.52,1.68,1.25,2.22,2.17s.8,1.97.8,3.12-.27,2.19-.8,3.12c-.54.93-1.28,1.65-2.22,2.17-.94.52-2,.78-3.17.78s-2.25-.26-3.19-.78ZM422.78,251.55c.46-.29.81-.69,1.07-1.2.25-.51.38-1.09.38-1.73s-.13-1.26-.38-1.76c-.26-.5-.61-.9-1.07-1.18s-.98-.42-1.57-.42-1.14.14-1.6.42-.81.67-1.07,1.18-.38,1.09-.38,1.76.13,1.24.38,1.74.61.9,1.07,1.19.98.43,1.57.43,1.14-.14,1.6-.43h0Z"/>
      <path class="st2" d="M428.24,242.84h3.34l2.78,8.74-.94-.02,2.88-8.71h2.4l2.88,8.71-.96.02,2.76-8.74h3.12l-4.03,11.57h-2.59l-2.9-8.74h.86l-2.9,8.74h-2.59l-4.1-11.57h-.01Z"/>
      <path class="st2" d="M448.44,254.5c-.43-.1-.82-.23-1.15-.41v-2.5c.24.16.52.29.83.38.31.1.61.14.9.14.46,0,.83-.11,1.09-.34.26-.22.4-.5.4-.84,0-.43-.22-.88-.65-1.34l-.96-1.1c-.59-.74-.89-1.54-.89-2.42,0-.67.17-1.27.52-1.8.34-.53.82-.94,1.43-1.24s1.29-.44,2.04-.44c.43,0,.85.04,1.25.12s.74.21,1.03.38v2.47c-.22-.16-.48-.28-.78-.37s-.57-.13-.83-.13c-.46,0-.83.11-1.09.32s-.4.5-.4.85c0,.4.22.84.65,1.32l.96,1.1c.61.75.91,1.56.91,2.42,0,.69-.17,1.3-.5,1.84s-.81.96-1.42,1.26c-.61.3-1.29.46-2.04.46-.43,0-.86-.05-1.3-.14h0Z"/>
      <path class="st2" d="M458.96,253.92c-.96-.51-1.7-1.22-2.22-2.12s-.78-1.94-.78-3.11.25-2.22.76-3.14,1.21-1.66,2.12-2.18c.91-.53,1.93-.79,3.05-.79,1.04,0,1.96.23,2.77.7.81.46,1.44,1.12,1.9,1.98s.68,1.84.68,2.96c0,.4-.02.82-.07,1.27h-9.43v-2.06h7.99l-1.3.02c0-.51-.11-.95-.32-1.31-.22-.36-.52-.64-.9-.85s-.83-.31-1.34-.31c-.58,0-1.09.13-1.55.38s-.8.64-1.04,1.15c-.24.51-.36,1.1-.36,1.78v.36c0,.74.15,1.37.44,1.91.3.54.73.94,1.31,1.21s1.26.41,2.06.41c.61,0,1.2-.08,1.79-.24s1.09-.39,1.52-.7v2.52c-.43.29-.99.52-1.67.68-.68.17-1.37.25-2.08.25-1.26,0-2.38-.26-3.34-.77h.01Z"/>
      <path class="st2" d="M475.76,245.5h-2.23v-2.66h2.23v-3.77h3.1v3.77h2.45v2.66h-2.45v8.9h-3.1v-8.9Z"/>
      <path class="st2" d="M483.44,236.4h3.12v8.11c.35-.61.83-1.08,1.44-1.42.61-.34,1.31-.5,2.11-.5s1.5.18,2.1.54,1.06.87,1.37,1.54c.31.66.47,1.45.47,2.36v7.37h-3.12v-6.7c0-.83-.16-1.45-.49-1.86s-.8-.61-1.43-.61c-.5,0-.93.12-1.3.36s-.65.58-.85,1.01-.3.93-.3,1.49v6.31h-3.12v-18h0Z"/>
      <path class="st2" d="M499.47,253.92c-.96-.51-1.7-1.22-2.22-2.12s-.78-1.94-.78-3.11.25-2.22.76-3.14,1.21-1.66,2.12-2.18c.91-.53,1.93-.79,3.05-.79,1.04,0,1.96.23,2.77.7.81.46,1.44,1.12,1.9,1.98s.68,1.84.68,2.96c0,.4-.02.82-.07,1.27h-9.43v-2.06h7.99l-1.3.02c0-.51-.11-.95-.32-1.31-.22-.36-.52-.64-.9-.85s-.83-.31-1.34-.31c-.58,0-1.09.13-1.55.38s-.8.64-1.04,1.15c-.24.51-.36,1.1-.36,1.78v.36c0,.74.15,1.37.44,1.91.3.54.73.94,1.31,1.21s1.26.41,2.06.41c.61,0,1.2-.08,1.79-.24s1.09-.39,1.52-.7v2.52c-.43.29-.99.52-1.67.68-.68.17-1.37.25-2.08.25-1.26,0-2.38-.26-3.34-.77h.01Z"/>
      <path class="st2" d="M515.8,254.52c-.47-.11-.9-.27-1.28-.48v-2.9c.29.24.63.42,1.03.55s.81.19,1.22.19c.77,0,1.39-.2,1.87-.59s.72-.91.72-1.55c0-.32-.08-.64-.23-.96-.15-.32-.4-.7-.73-1.13l-1.44-1.78c-.51-.62-.89-1.23-1.13-1.81s-.36-1.2-.36-1.86c0-.94.23-1.78.68-2.52.46-.74,1.08-1.32,1.88-1.74s1.7-.64,2.71-.64c.54,0,1.06.06,1.54.17s.9.27,1.25.48v2.93c-.3-.26-.66-.46-1.07-.6-.41-.14-.83-.22-1.26-.22-.75,0-1.35.18-1.8.55s-.67.86-.67,1.49c0,.3.07.62.22.94.14.32.39.7.74,1.13l1.44,1.78c.53.62.91,1.23,1.15,1.81s.36,1.2.36,1.86c0,.98-.23,1.85-.7,2.62-.46.77-1.1,1.37-1.92,1.8s-1.74.65-2.76.65c-.51,0-1-.06-1.48-.17h.02Z"/>
      <path class="st2" d="M527.79,253.86c-.91-.52-1.63-1.24-2.15-2.16s-.78-1.96-.78-3.11.26-2.14.78-3.06,1.24-1.64,2.15-2.15,1.94-.77,3.07-.77c.46,0,.9.04,1.32.12s.78.19,1.08.34v2.69c-.26-.18-.55-.31-.89-.4s-.69-.13-1.06-.13c-.64,0-1.21.14-1.72.43-.5.29-.89.68-1.16,1.19-.27.5-.41,1.08-.41,1.74s.14,1.26.41,1.78c.27.51.66.91,1.16,1.19s1.08.42,1.72.42c.74,0,1.38-.16,1.94-.48v2.66c-.67.32-1.47.48-2.4.48-1.14,0-2.16-.26-3.07-.78h.01Z"/>
      <path class="st2" d="M535.92,242.84h3.1v3.34l-.22-.22c.19-1.01.56-1.8,1.12-2.39s1.2-.88,1.93-.88c.34,0,.62.06.86.19v3.02c-.27-.11-.62-.17-1.03-.17-.82,0-1.46.28-1.93.83s-.71,1.3-.71,2.24v5.59h-3.12v-11.57.02Z"/>
      <path class="st2" d="M546.92,253.92c-.96-.51-1.7-1.22-2.22-2.12-.52-.9-.78-1.94-.78-3.11s.25-2.22.76-3.14,1.21-1.66,2.12-2.18c.91-.53,1.93-.79,3.05-.79,1.04,0,1.96.23,2.77.7.81.46,1.44,1.12,1.9,1.98s.68,1.84.68,2.96c0,.4-.02.82-.07,1.27h-9.43v-2.06h7.99l-1.3.02c0-.51-.11-.95-.32-1.31-.22-.36-.52-.64-.9-.85s-.83-.31-1.34-.31c-.58,0-1.09.13-1.55.38s-.8.64-1.04,1.15-.36,1.1-.36,1.78v.36c0,.74.15,1.37.44,1.91s.73.94,1.31,1.21,1.26.41,2.06.41c.61,0,1.2-.08,1.79-.24s1.09-.39,1.52-.7v2.52c-.43.29-.99.52-1.67.68-.68.17-1.37.25-2.08.25-1.26,0-2.38-.26-3.34-.77h.01Z"/>
      <path class="st2" d="M559.97,253.92c-.96-.51-1.7-1.22-2.22-2.12-.52-.9-.78-1.94-.78-3.11s.25-2.22.76-3.14,1.21-1.66,2.12-2.18c.91-.53,1.93-.79,3.05-.79,1.04,0,1.96.23,2.77.7.81.46,1.44,1.12,1.9,1.98s.68,1.84.68,2.96c0,.4-.02.82-.07,1.27h-9.43v-2.06h7.99l-1.3.02c0-.51-.11-.95-.32-1.31-.22-.36-.52-.64-.9-.85s-.83-.31-1.34-.31c-.58,0-1.09.13-1.55.38s-.8.64-1.04,1.15-.36,1.1-.36,1.78v.36c0,.74.15,1.37.44,1.91s.73.94,1.31,1.21,1.26.41,2.06.41c.61,0,1.2-.08,1.79-.24s1.09-.39,1.52-.7v2.52c-.43.29-.99.52-1.67.68-.68.17-1.37.25-2.08.25-1.26,0-2.38-.26-3.34-.77h.01Z"/>
      <path class="st2" d="M570.75,242.84h3.12v1.68c.35-.61.83-1.08,1.44-1.42s1.31-.5,2.11-.5,1.5.18,2.1.54,1.06.87,1.37,1.54c.31.66.47,1.45.47,2.36v7.37h-3.12v-6.7c0-.83-.17-1.45-.49-1.86-.33-.41-.8-.61-1.43-.61-.5,0-.93.12-1.3.36s-.65.58-.85,1.01-.3.93-.3,1.49v6.31h-3.12v-11.57h0Z"/>
      <path class="st2" d="M359.43,275.85c-.82-.53-1.47-1.25-1.93-2.17s-.7-1.94-.7-3.06.24-2.14.71-3.06,1.12-1.64,1.94-2.17,1.75-.79,2.77-.79c.82,0,1.55.18,2.21.53s1.17.84,1.54,1.46v-1.75h3.14v11.57h-3.14v-1.9c-.37.69-.88,1.22-1.55,1.58-.66.37-1.41.55-2.24.55-1.01,0-1.92-.26-2.75-.79h0ZM364.59,273.52c.46-.3.8-.69,1.03-1.16s.35-.95.35-1.43v-.65c0-.48-.12-.96-.36-1.43s-.59-.86-1.04-1.15c-.46-.3-1-.44-1.62-.44s-1.12.14-1.57.42-.81.68-1.07,1.19-.38,1.09-.38,1.73.13,1.26.38,1.78c.26.51.61.91,1.07,1.19.46.28.99.42,1.6.42s1.16-.15,1.62-.46h-.01Z"/>
      <path class="st2" d="M372.35,264.84h3.12v1.68c.35-.61.83-1.08,1.44-1.42.61-.34,1.31-.5,2.11-.5s1.5.18,2.1.54c.6.36,1.06.87,1.37,1.54.31.66.47,1.45.47,2.36v7.37h-3.12v-6.7c0-.83-.16-1.45-.49-1.86s-.8-.61-1.43-.61c-.5,0-.93.12-1.3.36s-.65.58-.85,1.01-.3.93-.3,1.49v6.31h-3.12v-11.57h0Z"/>
      <path class="st2" d="M388.01,275.85c-.82-.53-1.47-1.25-1.93-2.17s-.7-1.94-.7-3.06.24-2.14.71-3.06,1.12-1.64,1.94-2.17,1.75-.79,2.77-.79c.82,0,1.55.18,2.21.53s1.17.84,1.54,1.46v-8.18h3.14v18h-3.14v-1.9c-.37.69-.88,1.22-1.55,1.58-.66.37-1.41.55-2.24.55-1.01,0-1.92-.26-2.75-.79h0ZM393.17,273.52c.46-.3.8-.69,1.03-1.16s.35-.95.35-1.43v-.65c0-.48-.12-.96-.36-1.43s-.59-.86-1.04-1.15c-.46-.3-1-.44-1.62-.44s-1.12.14-1.57.42-.81.68-1.07,1.19-.38,1.09-.38,1.73.13,1.26.38,1.78c.26.51.61.91,1.07,1.19.46.28.99.42,1.6.42s1.16-.15,1.62-.46h-.01Z"/>
      <path class="st2" d="M410.68,259.6h3.19l6.82,16.8h-3.5l-1.85-4.94h.05l-3.48-9.1h.53l-3.5,9.1h.05l-1.97,4.94h-3.31l6.98-16.8h0ZM408.5,269.92h7.42l.67,2.66h-8.78l.7-2.66h-.01Z"/>
      <path class="st2" d="M422.32,264.84h3.1v3.34l-.22-.22c.19-1.01.56-1.8,1.12-2.39.55-.58,1.2-.88,1.93-.88.34,0,.62.06.86.19v3.02c-.27-.11-.62-.17-1.03-.17-.82,0-1.46.28-1.93.83s-.71,1.3-.71,2.24v5.59h-3.12v-11.57.02Z"/>
      <path class="st2" d="M431.32,264.84h3.1v3.34l-.22-.22c.19-1.01.56-1.8,1.12-2.39.55-.58,1.2-.88,1.93-.88.34,0,.62.06.86.19v3.02c-.27-.11-.62-.17-1.03-.17-.82,0-1.46.28-1.93.83s-.71,1.3-.71,2.24v5.59h-3.12v-11.57.02Z"/>
      <path class="st2" d="M441.94,275.85c-.82-.53-1.47-1.25-1.93-2.17s-.7-1.94-.7-3.06.24-2.14.71-3.06,1.12-1.64,1.94-2.17,1.75-.79,2.77-.79c.82,0,1.55.18,2.21.53s1.17.84,1.54,1.46v-1.75h3.14v11.57h-3.14v-1.9c-.37.69-.88,1.22-1.55,1.58-.66.37-1.41.55-2.24.55-1.01,0-1.92-.26-2.75-.79h0ZM447.1,273.52c.46-.3.8-.69,1.03-1.16s.35-.95.35-1.43v-.65c0-.48-.12-.96-.36-1.43s-.59-.86-1.04-1.15c-.46-.3-1-.44-1.62-.44s-1.12.14-1.57.42-.81.68-1.07,1.19-.38,1.09-.38,1.73.13,1.26.38,1.78c.26.51.61.91,1.07,1.19.46.28.99.42,1.6.42s1.16-.15,1.62-.46h-.01Z"/>
      <path class="st2" d="M454.86,264.84h3.12v1.68c.35-.61.83-1.08,1.44-1.42.61-.34,1.31-.5,2.11-.5s1.5.18,2.1.54c.6.36,1.06.87,1.37,1.54.31.66.47,1.45.47,2.36v7.37h-3.12v-6.7c0-.83-.16-1.45-.49-1.86s-.8-.61-1.43-.61c-.5,0-.93.12-1.3.36s-.65.58-.85,1.01-.3.93-.3,1.49v6.31h-3.12v-11.57h0Z"/>
      <path class="st2" d="M471.62,282.37c-.7-.18-1.27-.44-1.7-.76v-2.74c.45.37.97.65,1.56.84s1.22.29,1.87.29c1.22,0,2.14-.34,2.78-1.01.64-.67.96-1.65.96-2.93v-3.02l.41.5c-.32.96-.85,1.71-1.58,2.24-.74.54-1.61.8-2.62.8s-1.94-.26-2.76-.79-1.46-1.24-1.93-2.15c-.47-.9-.71-1.92-.71-3.04s.24-2.16.71-3.07,1.12-1.63,1.94-2.16,1.75-.79,2.77-.79c.83,0,1.57.18,2.22.53s1.16.84,1.55,1.46v-1.75h3.12v11.23c0,1.34-.26,2.51-.78,3.5s-1.26,1.75-2.22,2.28-2.08.79-3.36.79c-.78,0-1.53-.09-2.23-.28v.03ZM475.7,273.5c.46-.3.81-.69,1.04-1.15s.35-.94.35-1.44v-.65c0-.48-.12-.95-.36-1.42s-.59-.84-1.06-1.14c-.46-.3-1.01-.44-1.63-.44s-1.12.14-1.57.42-.81.67-1.06,1.18c-.25.5-.37,1.08-.37,1.74s.12,1.24.37,1.74.6.9,1.07,1.19.99.43,1.58.43c.62,0,1.17-.15,1.63-.46h0Z"/>
      <path class="st2" d="M485.75,275.92c-.96-.51-1.7-1.22-2.22-2.12s-.78-1.94-.78-3.11.25-2.22.76-3.14,1.21-1.66,2.12-2.18c.91-.53,1.93-.79,3.05-.79,1.04,0,1.96.23,2.77.7.81.46,1.44,1.12,1.9,1.98.46.86.68,1.84.68,2.96,0,.4-.02.82-.07,1.27h-9.43v-2.06h7.99l-1.3.02c0-.51-.11-.95-.32-1.31-.22-.36-.52-.64-.9-.85s-.83-.31-1.34-.31c-.58,0-1.09.13-1.55.38s-.8.64-1.04,1.15-.36,1.1-.36,1.78v.36c0,.74.15,1.37.44,1.91s.73.94,1.31,1.21,1.26.41,2.06.41c.61,0,1.2-.08,1.79-.24s1.09-.39,1.52-.7v2.52c-.43.29-.99.52-1.67.68-.68.17-1.37.25-2.08.25-1.26,0-2.38-.26-3.34-.77h.01Z"/>
      <path class="st2" d="M502.55,267.5h-2.23v-2.66h2.23v-3.77h3.1v3.77h2.45v2.66h-2.45v8.9h-3.1v-8.9Z"/>
      <path class="st2" d="M510.23,258.4h3.12v8.11c.35-.61.83-1.08,1.44-1.42.61-.34,1.31-.5,2.11-.5s1.5.18,2.1.54c.6.36,1.06.87,1.37,1.54.31.66.47,1.45.47,2.36v7.37h-3.12v-6.7c0-.83-.17-1.45-.49-1.86-.33-.41-.8-.61-1.43-.61-.5,0-.93.12-1.3.36s-.65.58-.85,1.01-.3.93-.3,1.49v6.31h-3.12v-18h0Z"/>
      <path class="st2" d="M526.26,275.92c-.96-.51-1.7-1.22-2.22-2.12-.52-.9-.78-1.94-.78-3.11s.25-2.22.76-3.14,1.21-1.66,2.12-2.18c.91-.53,1.93-.79,3.05-.79,1.04,0,1.96.23,2.77.7.81.46,1.44,1.12,1.9,1.98.46.86.68,1.84.68,2.96,0,.4-.02.82-.07,1.27h-9.43v-2.06h7.99l-1.3.02c0-.51-.11-.95-.32-1.31-.22-.36-.52-.64-.9-.85s-.83-.31-1.34-.31c-.58,0-1.09.13-1.55.38s-.8.64-1.04,1.15-.36,1.1-.36,1.78v.36c0,.74.15,1.37.44,1.91s.73.94,1.31,1.21,1.26.41,2.06.41c.61,0,1.2-.08,1.79-.24s1.09-.39,1.52-.7v2.52c-.43.29-.99.52-1.67.68-.68.17-1.37.25-2.08.25-1.26,0-2.38-.26-3.34-.77h.01Z"/>
      <path class="st2" d="M542.48,262.09c-.36-.36-.54-.79-.54-1.28s.18-.94.54-1.28.8-.52,1.33-.52.95.17,1.31.52c.36.34.54.77.54,1.28s-.18.92-.53,1.28c-.35.36-.79.54-1.32.54s-.97-.18-1.33-.54h0ZM542.22,264.84h3.12v11.57h-3.12v-11.57Z"/>
      <path class="st2" d="M548.61,264.84h3.12v1.68c.34-.61.8-1.08,1.39-1.42s1.27-.5,2.04-.5c.98,0,1.78.28,2.4.83s1.05,1.32,1.27,2.29l-.67-.1c.22-.91.71-1.64,1.45-2.2.74-.55,1.61-.83,2.6-.83.78,0,1.47.18,2.05.54.58.36,1.03.88,1.34,1.55.31.67.47,1.46.47,2.38v7.34h-3.12v-6.7c0-.83-.15-1.45-.46-1.86s-.75-.61-1.34-.61c-.67,0-1.22.26-1.63.78-.42.52-.62,1.2-.62,2.05v6.34h-3.12v-6.7c0-.83-.15-1.45-.46-1.86s-.75-.61-1.34-.61c-.67,0-1.22.26-1.63.78-.42.52-.62,1.2-.62,2.05v6.34h-3.12v-11.57h0Z"/>
      <path class="st2" d="M571.11,275.85c-.82-.53-1.47-1.25-1.93-2.17s-.7-1.94-.7-3.06.24-2.14.71-3.06c.47-.92,1.12-1.64,1.94-2.17s1.75-.79,2.77-.79c.82,0,1.55.18,2.21.53.66.35,1.17.84,1.54,1.46v-1.75h3.14v11.57h-3.14v-1.9c-.37.69-.88,1.22-1.55,1.58-.67.37-1.41.55-2.24.55-1.01,0-1.92-.26-2.75-.79h0ZM576.27,273.52c.46-.3.8-.69,1.03-1.16.23-.47.35-.95.35-1.43v-.65c0-.48-.12-.96-.36-1.43s-.59-.86-1.04-1.15c-.46-.3-1-.44-1.62-.44s-1.12.14-1.57.42-.81.68-1.07,1.19-.38,1.09-.38,1.73.13,1.26.38,1.78c.26.51.61.91,1.07,1.19s.99.42,1.6.42,1.16-.15,1.62-.46h-.01Z"/>
      <path class="st2" d="M587.03,282.37c-.7-.18-1.27-.44-1.7-.76v-2.74c.45.37.97.65,1.56.84s1.22.29,1.87.29c1.22,0,2.14-.34,2.78-1.01s.96-1.65.96-2.93v-3.02l.41.5c-.32.96-.85,1.71-1.58,2.24-.74.54-1.61.8-2.62.8s-1.94-.26-2.76-.79-1.46-1.24-1.93-2.15c-.47-.9-.71-1.92-.71-3.04s.24-2.16.71-3.07c.47-.91,1.12-1.63,1.94-2.16s1.75-.79,2.77-.79c.83,0,1.57.18,2.22.53.65.35,1.16.84,1.55,1.46v-1.75h3.12v11.23c0,1.34-.26,2.51-.78,3.5s-1.26,1.75-2.22,2.28-2.08.79-3.36.79c-.78,0-1.53-.09-2.23-.28v.03ZM591.11,273.5c.46-.3.81-.69,1.04-1.15s.35-.94.35-1.44v-.65c0-.48-.12-.95-.36-1.42-.24-.46-.59-.84-1.06-1.14-.46-.3-1.01-.44-1.63-.44s-1.12.14-1.57.42-.81.67-1.06,1.18-.37,1.08-.37,1.74.12,1.24.37,1.74.6.9,1.07,1.19c.46.29.99.43,1.58.43.62,0,1.17-.15,1.63-.46h.01Z"/>
      <path class="st2" d="M601.17,275.92c-.96-.51-1.7-1.22-2.22-2.12-.52-.9-.78-1.94-.78-3.11s.25-2.22.76-3.14,1.21-1.66,2.12-2.18c.91-.53,1.93-.79,3.05-.79,1.04,0,1.96.23,2.77.7.81.46,1.44,1.12,1.9,1.98.46.86.68,1.84.68,2.96,0,.4-.02.82-.07,1.27h-9.43v-2.06h7.99l-1.3.02c0-.51-.11-.95-.32-1.31-.22-.36-.52-.64-.9-.85s-.83-.31-1.34-.31c-.58,0-1.09.13-1.55.38s-.8.64-1.04,1.15-.36,1.1-.36,1.78v.36c0,.74.15,1.37.44,1.91s.73.94,1.31,1.21,1.26.41,2.06.41c.61,0,1.2-.08,1.79-.24s1.09-.39,1.52-.7v2.52c-.43.29-.99.52-1.67.68-.68.17-1.37.25-2.08.25-1.26,0-2.38-.26-3.34-.77h.01Z"/>
      <path class="st2" d="M612.16,276.5c-.43-.1-.82-.23-1.15-.41v-2.5c.24.16.52.29.83.38.31.1.61.14.9.14.46,0,.83-.11,1.09-.34.26-.22.4-.5.4-.84,0-.43-.22-.88-.65-1.34l-.96-1.1c-.59-.74-.89-1.54-.89-2.42,0-.67.17-1.27.52-1.8.34-.53.82-.94,1.43-1.24s1.29-.44,2.04-.44c.43,0,.85.04,1.25.12s.74.21,1.03.38v2.47c-.22-.16-.48-.28-.78-.37-.3-.09-.57-.13-.83-.13-.46,0-.83.11-1.09.32-.26.22-.4.5-.4.85,0,.4.22.84.65,1.32l.96,1.1c.61.75.91,1.56.91,2.42,0,.69-.17,1.3-.5,1.84-.34.54-.81.96-1.42,1.26-.61.3-1.29.46-2.04.46-.43,0-.86-.05-1.3-.14h0Z"/>
    </g>
    <g>
      <circle class="st2" cx="487" cy="209.33" r="13.32"/>
      <path class="st4" d="M484.53,216.36c-.51-.15-.93-.36-1.25-.63v-2.46c.29.35.65.61,1.08.79s.88.27,1.36.27c.45,0,.86-.08,1.22-.25.36-.17.64-.4.83-.7.19-.3.29-.65.29-1.05,0-.6-.23-1.08-.68-1.45-.45-.37-1.05-.55-1.78-.55h-.86v-2.18h.86c.48,0,.9-.08,1.25-.24s.63-.39.84-.68.31-.63.31-1c0-.57-.21-1.04-.64-1.39-.43-.35-.97-.53-1.64-.53-.48,0-.92.09-1.33.27-.41.18-.75.42-1.03.71v-2.26c.35-.31.77-.54,1.27-.71s1.04-.25,1.63-.25c.83,0,1.57.16,2.23.48.66.32,1.18.77,1.55,1.35s.56,1.24.56,1.97-.18,1.38-.54,1.97c-.36.59-.85,1.05-1.46,1.37.65.32,1.17.78,1.55,1.38.38.6.57,1.27.57,2s-.2,1.44-.59,2.05-.93,1.08-1.62,1.43-1.46.52-2.33.52c-.59,0-1.14-.08-1.65-.23h0Z"/>
    </g>
  </g>
  <g>
    <path class="st0" d="M362.38,18.58h299.41c12.98,0,23.5,10.52,23.5,23.5h0c0,12.98-10.52,23.49-23.5,23.49h-299.41c-12.98,0-23.5-10.52-23.5-23.5h0c0-12.98,10.52-23.49,23.5-23.49Z"/>
    <g>
      <path class="st4" d="M392.52,49.5c-.47-.11-.9-.27-1.28-.48v-2.9c.29.24.63.42,1.03.55s.81.19,1.22.19c.77,0,1.39-.2,1.87-.59.48-.39.72-.91.72-1.55,0-.32-.08-.64-.23-.96-.15-.32-.4-.7-.73-1.13l-1.44-1.78c-.51-.62-.89-1.23-1.13-1.81s-.36-1.2-.36-1.86c0-.94.23-1.78.68-2.52.46-.74,1.08-1.32,1.88-1.74.8-.42,1.7-.64,2.71-.64.54,0,1.06.06,1.54.17.48.11.9.27,1.25.48v2.93c-.3-.26-.66-.46-1.07-.6s-.83-.22-1.26-.22c-.75,0-1.35.18-1.8.55-.45.37-.67.86-.67,1.49,0,.3.07.62.22.94.14.32.39.7.74,1.13l1.44,1.78c.53.62.91,1.23,1.15,1.81s.36,1.2.36,1.86c0,.98-.23,1.85-.7,2.62-.46.77-1.1,1.37-1.92,1.8s-1.74.65-2.76.65c-.51,0-1-.06-1.48-.17h.02Z"/>
      <path class="st4" d="M404.23,48.83c-.82-.53-1.47-1.25-1.93-2.17s-.7-1.94-.7-3.06.24-2.14.71-3.06c.47-.92,1.12-1.64,1.94-2.17s1.75-.79,2.77-.79c.82,0,1.55.18,2.21.53s1.17.84,1.54,1.46v-1.75h3.14v11.57h-3.14v-1.9c-.37.69-.88,1.22-1.55,1.58-.67.37-1.41.55-2.24.55-1.01,0-1.92-.26-2.75-.79ZM409.39,46.5c.46-.3.8-.69,1.03-1.16s.35-.95.35-1.43v-.65c0-.48-.12-.96-.36-1.43s-.59-.86-1.04-1.15c-.46-.3-1-.44-1.62-.44s-1.12.14-1.57.42c-.46.28-.81.68-1.07,1.19s-.38,1.09-.38,1.73.13,1.26.38,1.78c.26.51.61.91,1.07,1.19.46.28.99.42,1.6.42s1.16-.15,1.62-.46h-.01Z"/>
      <path class="st4" d="M415.74,37.81h3.43l3.22,8.52h-.96l3.38-8.52h3.17l-4.87,11.57h-2.64l-4.73-11.57Z"/>
      <path class="st4" d="M431.68,48.9c-.96-.51-1.7-1.22-2.22-2.12-.52-.9-.78-1.94-.78-3.11s.25-2.22.76-3.14c.5-.93,1.21-1.66,2.12-2.18s1.93-.79,3.05-.79c1.04,0,1.96.23,2.77.7.81.46,1.44,1.12,1.9,1.98s.68,1.84.68,2.96c0,.4-.02.82-.07,1.27h-9.43v-2.06h7.99l-1.3.02c0-.51-.11-.95-.32-1.31s-.52-.64-.9-.85-.83-.31-1.34-.31c-.58,0-1.09.13-1.55.38s-.8.64-1.04,1.15c-.24.51-.36,1.1-.36,1.78v.36c0,.74.15,1.37.44,1.91.3.54.73.94,1.31,1.21s1.26.41,2.06.41c.61,0,1.2-.08,1.79-.24.58-.16,1.09-.39,1.52-.7v2.52c-.43.29-.99.52-1.67.68-.68.17-1.37.25-2.08.25-1.26,0-2.38-.26-3.34-.77h.01Z"/>
      <path class="st4" d="M449.35,49.06c-.79-.41-1.41-.96-1.85-1.66s-.66-1.48-.66-2.34.21-1.65.64-2.4c.42-.75,1.07-1.43,1.93-2.04l2.21-1.61.89,2.45-1.44,1.13c-.4.3-.7.64-.9,1.01-.2.37-.3.77-.3,1.2s.1.82.29,1.16.47.61.83.8.78.29,1.26.29c.38,0,.79-.07,1.21-.22s.79-.37,1.09-.67l.98-.94,1.73,1.9-.98.94c-.56.51-1.21.91-1.94,1.19s-1.5.42-2.3.42c-.99,0-1.88-.2-2.68-.61h-.01ZM448.93,37.73c-.19-.46-.29-.95-.29-1.48,0-.7.19-1.36.58-1.98.38-.62.91-1.1,1.57-1.45.66-.35,1.4-.53,2.2-.53s1.52.17,2.17.52,1.16.81,1.54,1.39c.38.58.56,1.24.56,1.96,0,.66-.18,1.28-.53,1.88-.35.6-.9,1.16-1.63,1.67l-1.46,1.01-1.49-1.92,1.39-1.01c.35-.26.6-.51.74-.76.14-.25.22-.51.22-.78,0-.4-.15-.74-.44-1.02-.3-.28-.66-.42-1.09-.42s-.77.14-1.06.43-.43.64-.43,1.06c0,.24.04.47.13.68s.23.44.42.68l10.18,11.71h-3.86l-8.52-10.22c-.4-.5-.7-.97-.89-1.43h-.01ZM455.89,44.89l5.38-6.48v3.89l-3.17,3.82-2.21-1.22h0Z"/>
      <path class="st4" d="M469.33,32.58h4.49c1.17,0,2.21.24,3.13.72s1.64,1.14,2.15,1.97c.51.83.77,1.77.77,2.81s-.26,1.98-.78,2.82-1.24,1.5-2.15,1.97-1.95.71-3.12.71h-1.22v5.81h-3.26v-16.8h0ZM475.28,40.5c.45-.22.8-.54,1.06-.96s.38-.9.38-1.46-.13-1.03-.38-1.45-.61-.75-1.06-.98-.97-.35-1.56-.35h-1.13v5.54h1.13c.59,0,1.11-.11,1.56-.34Z"/>
      <path class="st4" d="M481.93,37.81h3.1v3.34l-.22-.22c.19-1.01.56-1.8,1.12-2.39.55-.58,1.2-.88,1.93-.88.34,0,.62.06.86.19v3.02c-.27-.11-.62-.17-1.03-.17-.82,0-1.46.28-1.93.83-.47.55-.71,1.3-.71,2.24v5.59h-3.12v-11.57.02Z"/>
      <path class="st4" d="M491.18,35.06c-.36-.36-.54-.79-.54-1.28s.18-.94.54-1.28c.36-.34.8-.52,1.33-.52s.95.17,1.31.52c.36.34.54.77.54,1.28s-.18.92-.53,1.28-.79.54-1.32.54-.97-.18-1.33-.54ZM490.93,37.81h3.12v11.57h-3.12v-11.57Z"/>
      <path class="st4" d="M497.31,37.81h3.12v1.68c.35-.61.83-1.08,1.44-1.42.61-.34,1.31-.5,2.11-.5s1.5.18,2.1.54,1.06.87,1.37,1.54c.31.66.47,1.45.47,2.36v7.37h-3.12v-6.7c0-.83-.16-1.45-.49-1.86s-.8-.61-1.43-.61c-.5,0-.93.12-1.3.36s-.65.58-.85,1.01c-.2.43-.3.93-.3,1.49v6.31h-3.12v-11.57h0Z"/>
      <path class="st4" d="M512.1,40.48h-2.23v-2.66h2.23v-3.77h3.1v3.77h2.45v2.66h-2.45v8.9h-3.1s0-8.9,0-8.9Z"/>
      <path class="st4" d="M524.82,32.58h8.74v2.81h-5.47v4.01h5.21v2.76h-5.21v7.22h-3.26v-16.8h-.01Z"/>
      <path class="st4" d="M537.72,48.83c-.82-.53-1.47-1.25-1.93-2.17s-.7-1.94-.7-3.06.24-2.14.71-3.06c.47-.92,1.12-1.64,1.94-2.17s1.75-.79,2.77-.79c.82,0,1.55.18,2.21.53s1.17.84,1.54,1.46v-1.75h3.14v11.57h-3.14v-1.9c-.37.69-.88,1.22-1.55,1.58s-1.41.55-2.24.55c-1.01,0-1.92-.26-2.75-.79h0ZM542.88,46.5c.46-.3.8-.69,1.03-1.16.23-.47.35-.95.35-1.43v-.65c0-.48-.12-.96-.36-1.43s-.59-.86-1.04-1.15c-.46-.3-1-.44-1.62-.44s-1.12.14-1.57.42c-.46.28-.81.68-1.07,1.19s-.38,1.09-.38,1.73.13,1.26.38,1.78c.26.51.61.91,1.07,1.19s.99.42,1.6.42,1.16-.15,1.62-.46h-.01Z"/>
      <path class="st4" d="M550.64,31.38h3.12v18h-3.12v-18ZM553.28,42.73l4.58-4.92h3.67l-5.52,5.69.12-1.63,5.38,7.51h-3.67s-4.56-6.65-4.56-6.65Z"/>
      <path class="st4" d="M564.92,48.9c-.96-.51-1.7-1.22-2.22-2.12-.52-.9-.78-1.94-.78-3.11s.25-2.22.76-3.14c.5-.93,1.21-1.66,2.12-2.18s1.93-.79,3.05-.79c1.04,0,1.96.23,2.77.7.81.46,1.44,1.12,1.9,1.98s.68,1.84.68,2.96c0,.4-.02.82-.07,1.27h-9.43v-2.06h7.99l-1.3.02c0-.51-.11-.95-.32-1.31s-.52-.64-.9-.85-.83-.31-1.34-.31c-.58,0-1.09.13-1.55.38s-.8.64-1.04,1.15c-.24.51-.36,1.1-.36,1.78v.36c0,.74.15,1.37.44,1.91.3.54.73.94,1.31,1.21s1.26.41,2.06.41c.61,0,1.2-.08,1.79-.24.58-.16,1.09-.39,1.52-.7v2.52c-.43.29-.99.52-1.67.68-.68.17-1.37.25-2.08.25-1.26,0-2.38-.26-3.34-.77h.01Z"/>
      <path class="st4" d="M575.7,31.38h3.12v18h-3.12v-18ZM578.34,42.73l4.58-4.92h3.67l-5.52,5.69.12-1.63,5.38,7.51h-3.67s-4.56-6.65-4.56-6.65Z"/>
      <path class="st4" d="M589.66,48.83c-.82-.53-1.47-1.25-1.93-2.17s-.7-1.94-.7-3.06.24-2.14.71-3.06c.47-.92,1.12-1.64,1.94-2.17s1.75-.79,2.77-.79c.82,0,1.55.18,2.21.53.66.35,1.17.84,1.54,1.46v-1.75h3.14v11.57h-3.14v-1.9c-.37.69-.88,1.22-1.55,1.58-.67.37-1.41.55-2.24.55-1.01,0-1.92-.26-2.75-.79h0ZM594.82,46.5c.46-.3.8-.69,1.03-1.16.23-.47.35-.95.35-1.43v-.65c0-.48-.12-.96-.36-1.43s-.59-.86-1.04-1.15c-.46-.3-1-.44-1.62-.44s-1.12.14-1.57.42c-.46.28-.81.68-1.07,1.19s-.38,1.09-.38,1.73.13,1.26.38,1.78c.26.51.61.91,1.07,1.19s.99.42,1.6.42,1.16-.15,1.62-.46h-.01Z"/>
      <path class="st4" d="M602.58,37.81h3.12v1.68c.34-.61.8-1.08,1.39-1.42.59-.34,1.27-.5,2.04-.5.98,0,1.78.28,2.4.83.62.55,1.05,1.32,1.27,2.29l-.67-.1c.22-.91.71-1.64,1.45-2.2.74-.55,1.61-.83,2.6-.83.78,0,1.47.18,2.05.54s1.03.88,1.34,1.55.47,1.46.47,2.38v7.34h-3.12v-6.7c0-.83-.15-1.45-.46-1.86-.3-.41-.75-.61-1.34-.61-.67,0-1.22.26-1.63.78-.42.52-.62,1.2-.62,2.05v6.34h-3.12v-6.7c0-.83-.15-1.45-.46-1.86-.3-.41-.75-.61-1.34-.61-.67,0-1.22.26-1.63.78-.42.52-.62,1.2-.62,2.05v6.34h-3.12v-11.57h0Z"/>
      <path class="st4" d="M623.17,37.81h3.12v1.68c.34-.61.8-1.08,1.39-1.42.59-.34,1.27-.5,2.04-.5.98,0,1.78.28,2.4.83.62.55,1.05,1.32,1.27,2.29l-.67-.1c.22-.91.71-1.64,1.45-2.2.74-.55,1.61-.83,2.6-.83.78,0,1.47.18,2.05.54s1.03.88,1.34,1.55.47,1.46.47,2.38v7.34h-3.12v-6.7c0-.83-.15-1.45-.46-1.86-.3-.41-.75-.61-1.34-.61-.67,0-1.22.26-1.63.78-.42.52-.62,1.2-.62,2.05v6.34h-3.12v-6.7c0-.83-.15-1.45-.46-1.86-.3-.41-.75-.61-1.34-.61-.67,0-1.22.26-1.63.78-.42.52-.62,1.2-.62,2.05v6.34h-3.12v-11.57h0Z"/>
      <path class="st4" d="M646.04,48.9c-.96-.51-1.7-1.22-2.22-2.12-.52-.9-.78-1.94-.78-3.11s.25-2.22.76-3.14c.5-.93,1.21-1.66,2.12-2.18s1.93-.79,3.05-.79c1.04,0,1.96.23,2.77.7.81.46,1.44,1.12,1.9,1.98s.68,1.84.68,2.96c0,.4-.02.82-.07,1.27h-9.43v-2.06h7.99l-1.3.02c0-.51-.11-.95-.32-1.31s-.52-.64-.9-.85-.83-.31-1.34-.31c-.58,0-1.09.13-1.55.38s-.8.64-1.04,1.15c-.24.51-.36,1.1-.36,1.78v.36c0,.74.15,1.37.44,1.91.3.54.73.94,1.31,1.21s1.26.41,2.06.41c.61,0,1.2-.08,1.79-.24.58-.16,1.09-.39,1.52-.7v2.52c-.43.29-.99.52-1.67.68-.68.17-1.37.25-2.08.25-1.26,0-2.38-.26-3.34-.77h.01Z"/>
      <path class="st4" d="M656.82,37.81h3.1v3.34l-.22-.22c.19-1.01.56-1.8,1.12-2.39s1.2-.88,1.93-.88c.34,0,.62.06.86.19v3.02c-.27-.11-.62-.17-1.03-.17-.82,0-1.46.28-1.93.83-.47.55-.71,1.3-.71,2.24v5.59h-3.12v-11.57.02Z"/>
    </g>
    <g>
      <circle class="st4" cx="364.41" cy="42.08" r="13.32"/>
      <path class="st2" d="M364.83,45.66h-7.48l6.7-10.58h3.32v8.4h2.1v2.18h-2.1v3.42h-2.54v-3.42ZM360.53,43.48h4.3v-6.2l.24.14-3.94,6.32-.6-.26h0Z"/>
    </g>
  </g>
</svg>