<?xml version="1.0" encoding="UTF-8"?>
<svg id="_레이어_1" xmlns="http://www.w3.org/2000/svg" version="1.1" viewBox="0 0 638.91 172.78">
  <!-- Generator: Adobe Illustrator 30.4.0, SVG Export Plug-In . SVG Version: 2.1.4 Build 226)  -->
  <defs>
    <style>
      .st0 {
        fill: #f0f;
      }

      .st1 {
        fill: #fff;
      }
    </style>
  </defs>
  <g>
    <path class="st0" d="M582.08,168.77c-284.57-.18-470.84-.27-553.64-.27-10.7,0-18.91-5.98-23.12-16.83-1.84-4.74-1.75-9.96.25-14.71l6.32-14.95c4.59-10.86,15.18-17.88,26.98-17.88,1.23,0,2.45.09,3.65.28,2.21-11.86,8.56-22.84,18.18-31.31,9.94-8.75,22.8-14.29,36.51-15.79,1.98-19.74,7.27-34.74,15.36-43.52,5.35-5.8,13.95-9.55,21.91-9.55,1.96,0,7.23-.05,13.01-.1,6.97-.06,14.87-.14,18.43-.14,7.88,0,14.53,2.36,19.77,7.02,1.93,1.72,5.14,5.15,7.13,10.39h.82c1.55,0,3.09.09,4.62.28,1.51-3.43,3.53-6.45,6.04-9,5.34-5.44,12.46-8.44,20.06-8.44,12.13,0,22.22,6.67,26.92,17.58,4.38.54,8.52,1.83,12.33,3.85,6.17-3.35,13.16-5.11,20.39-5.11.51,0,1.02,0,1.53.03,1.45-2.99,3.3-5.64,5.53-7.91,5.34-5.44,12.46-8.44,20.06-8.44,12.18,0,22.31,6.73,26.98,17.73,3.61.83,6.84,2.79,9.65,4.68,16.72-5.84,30.11-10.44,62.89-10.44,22.18,0,44.32,6.21,55.18,10.86,14.44-7.24,35.72-10.76,64.94-10.76,22.04,0,52.03,5.81,63.51,12.08,4.47-1.75,8.95-2.61,13.63-2.61,2.44,0,4.95.24,7.47.72,7.27,1.38,19.48,6.61,19.48,26.19,0,.95.05,36.13.05,36.13l-.11.15.04,17.31c.02,10.39.04,19.3.04,22.24v3.67c.07,3.8.27,15.35-5.3,22.97-2.25,3.08-5.85,7.5-11.1,10.25-4.31,2.25-9,3.39-13.95,3.39h-22.45v-.03h.01Z"/>
    <path class="st0" d="M165.92,8c6.87,0,12.62,2.02,17.11,6.01,2.18,1.94,5.49,5.72,6.9,11.58,1.25-.13,2.49-.19,3.71-.19,2.49,0,4.89.27,7.19.76,1.61-4.95,4.08-8.4,6.33-10.68,4.58-4.67,10.69-7.24,17.21-7.24,10,0,20.07,5.45,24.07,17.33,5.63.32,10.77,1.97,15.19,4.71,6-3.73,12.95-5.72,20.37-5.72,1.38,0,2.74.07,4.08.21,1.6-4.21,3.81-7.22,5.84-9.29,4.58-4.67,10.69-7.24,17.21-7.24,10,0,20.07,5.45,24.08,17.34,4.31.24,8.32,3,11.95,5.52,17.81-6.22,30.17-10.89,63.49-10.89,22.26,0,44.93,6.44,55.32,11.3,9.69-5.27,27.48-11.2,64.8-11.2,24.72,0,55.13,6.94,63.18,12.56,4-1.8,8.6-3.09,13.97-3.09,2.12,0,4.36.2,6.73.65,9.08,1.72,16.22,8.11,16.22,22.26,0,.95.05,34.8.05,34.8-.04.05-.07.11-.11.16.04,16.73.09,36.24.09,40.87v3.09c0,2.1.65,14.12-4.52,21.19-2.64,3.62-5.71,6.96-9.72,9.06-3.73,1.95-7.8,2.94-12.09,2.94-3.42,0-432.07-.28-576.09-.28-9.51,0-16.01-5.56-19.4-14.28-1.46-3.77-1.37-7.98.21-11.7l6.32-14.95c3.96-9.36,13.13-15.44,23.3-15.44,2.43,0,4.79.45,6.99,1.28,2.45-26.01,25.85-46.67,55.04-48.4,1.64-20.74,6.91-36.16,14.62-44.51,4.37-4.74,11.9-8.26,18.96-8.26,4.37,0,24.98-.24,31.44-.24M165.92,0c-3.58,0-11.49.07-18.47.14-5.68.05-11.04.1-12.97.1-9.03,0-18.78,4.25-24.85,10.83-8.23,8.93-13.73,23.6-16.05,42.67-13.32,2.05-25.74,7.74-35.52,16.35-9.34,8.22-15.8,18.67-18.69,30.04h-.5c-13.41,0-25.44,7.98-30.66,20.33l-6.32,14.95c-2.41,5.71-2.52,12-.3,17.71,4.78,12.32,14.57,19.38,26.85,19.38,82.8,0,269.07.09,553.64.27h22.45c5.6,0,10.92-1.29,15.8-3.85,5.99-3.14,9.99-8.03,12.48-11.43,6.36-8.71,6.14-21.27,6.07-25.4v-3.6c0-2.98-.02-12.08-.05-22.65l-.03-15.58.11-.15v-2.67s-.06-33.83-.06-34.78c0-23.3-15.9-28.83-22.73-30.12-2.76-.52-5.53-.79-8.22-.79-4.6,0-9.01.74-13.4,2.26-13.19-6.29-41.83-11.73-63.75-11.73-28.75,0-50.09,3.4-65.05,10.38-13.05-5.3-34.49-10.47-55.07-10.47-32.23,0-46.1,4.36-62.34,10.01-2.16-1.37-4.61-2.71-7.32-3.6C335.37,7.16,324.3.23,311.12.23c-8.68,0-16.82,3.42-22.92,9.64-1.95,1.99-3.64,4.22-5.07,6.69-6.87.12-13.53,1.7-19.56,4.62-3.04-1.4-6.24-2.4-9.58-3C248.32,6.99,237.37.24,224.36.24c-8.68,0-16.82,3.42-22.92,9.64-2.19,2.23-4.05,4.77-5.57,7.58-.14,0-.28-.01-.42-.02-2.25-4.61-5.21-7.72-7.1-9.41C182.35,2.7,174.81,0,165.92,0h0Z"/>
  </g>
  <g>
    <g>
      <path class="st1" d="M129.2,103.35c0-1.44.96-13.08.96-17.28,0-10.08.12-17.16.12-24.96s-.12-15.96-.72-28.8c-.12-2.52,2.16-4.08,4.92-4.08,5.28,0,10.68.36,15.84.36s12-.6,15.6-.6c3.96,0,4.68,1.44,4.68,3.36l-.24,7.92c-.12,4.44.36,7.92.36,10.44s-2.52,3.72-4.8,3.72c-1.68,0-4.56-.12-7.8-.12-7.56,0-17.04.72-17.04,5.4,0,3.6,2.64,4.68,9.36,4.68,5.04,0,10.56-.72,15.12-.72,3.12,0,5.4,1.8,5.4,4.92s-.96,5.76-7.32,5.76c-3.72,0-8.76-.72-10.32-.72-4.68,0-12.12.72-12.12,9,0,15.72,1.56,17.4,1.56,21.72,0,5.4-2.16,8.64-6.84,8.64-4.08,0-6.72-3.24-6.72-8.64h0Z"/>
      <path class="st1" d="M173.72,77.92c0-24.24,10.2-32.52,19.92-32.52,5.04,0,7.68,2.28,9.24,4.44.96,1.2,1.32,1.2,1.68-.36.48-2.16,3-4.08,5.28-4.08,3.6,0,5.16,2.04,5.16,10.2,0,6.36-.6,10.92-.6,25.32,0,12.36.6,18,.6,21.84,0,6.84-1.8,9.24-5.04,9.24-2.88,0-5.4-2.04-5.88-4.92-.36-1.68-1.08-1.8-2.04-.36-2.4,3.48-7.32,5.28-10.8,5.28-9.6,0-17.52-11.88-17.52-34.08ZM205.04,73.48c0-7.44-1.2-17.4-11.4-17.4s-11.28,10.08-11.28,17.4c0,9,5.4,13.92,11.76,13.92,8.52,0,10.92-7.56,10.92-13.92Z"/>
      <path class="st1" d="M219.79,69.64l-.72-31.2c-.12-6.24,1.8-10.2,5.28-10.2s5.88,2.16,5.88,9.24v11.28c0,2.64,1.08,3,3.36,1.44,3-2.04,7.68-4.68,12.84-4.68,8.04,0,13.56,6.72,13.56,17.16,0,11.64-6.96,16.92-10.92,19.32-1.68.96-2.28,2.28-1.2,4.08,3.36,5.88,6,9.6,8.04,13.44,1.8,3.6,2.88,6.48,2.88,8.64,0,2.4-1.44,3.84-4.56,3.84-2.76,0-4.8-2.04-7.8-7.44-2.88-5.04-6.84-13.32-9.36-18.72-1.56-3.36-.12-5.16,3.36-6.48,2.16-.84,4.32-2.28,5.4-4.8,1.68-3.96-1.32-8.4-5.88-8.4-5.04,0-9.84,5.28-9.96,11.28l-.24,15.96c-.12,5.64.24,6.84.24,9.6,0,7.2-2.4,9-5.76,9-3,0-5.16-3.48-5.16-8.76,0-6.84.96-22.68.72-33.6h0Z"/>
      <path class="st1" d="M262.51,77.8c0-26.52,11.88-33.24,21.48-33.24,10.32,0,16.92,7.32,16.92,16.92,0,8.76-5.64,16.56-13.8,16.56-6.6,0-10.56-4.2-10.56-7.44,0-2.04,1.56-5.16,3.36-5.16,1.92,0,3.96,2.76,7.2,2.76,3.48,0,5.64-3.24,5.64-6.36,0-4.44-4.32-6.96-7.32-6.96-8.4,0-12.6,6.84-12.6,18,0,9.84,3.36,15.24,12.84,15.24,10.32,0,9.48-6.96,12.84-6.96,2.4,0,3.24,7.44,3.24,11.52,0,13.56-7.44,19.44-19.32,19.44-15.96,0-19.92-14.88-19.92-34.32Z"/>
      <path class="st1" d="M306.55,69.64l-.72-31.2c-.12-6.24,1.8-10.2,5.28-10.2s5.88,2.16,5.88,9.24v11.28c0,2.64,1.08,3,3.36,1.44,3-2.04,7.68-4.68,12.84-4.68,8.04,0,13.56,6.72,13.56,17.16,0,11.64-6.96,16.92-10.92,19.32-1.68.96-2.28,2.28-1.2,4.08,3.36,5.88,6,9.6,8.04,13.44,1.8,3.6,2.88,6.48,2.88,8.64,0,2.4-1.44,3.84-4.56,3.84-2.76,0-4.8-2.04-7.8-7.44-2.88-5.04-6.84-13.32-9.36-18.72-1.56-3.36-.12-5.16,3.36-6.48,2.16-.84,4.32-2.28,5.4-4.8,1.68-3.96-1.32-8.4-5.88-8.4-5.04,0-9.84,5.28-9.96,11.28l-.24,15.96c-.12,5.64.24,6.84.24,9.6,0,7.2-2.4,9-5.76,9-3,0-5.16-3.48-5.16-8.76,0-6.84.96-22.68.72-33.6h0Z"/>
      <path class="st1" d="M348.91,77.92c0-24.24,10.2-32.52,19.92-32.52,5.04,0,7.68,2.28,9.24,4.44.96,1.2,1.32,1.2,1.68-.36.48-2.16,3-4.08,5.28-4.08,3.6,0,5.16,2.04,5.16,10.2,0,6.36-.6,10.92-.6,25.32,0,12.36.6,18,.6,21.84,0,6.84-1.8,9.24-5.04,9.24-2.88,0-5.4-2.04-5.88-4.92-.36-1.68-1.08-1.8-2.04-.36-2.4,3.48-7.32,5.28-10.8,5.28-9.6,0-17.52-11.88-17.52-34.08ZM380.23,73.48c0-7.44-1.2-17.4-11.4-17.4s-11.28,10.08-11.28,17.4c0,9,5.4,13.92,11.76,13.92,8.52,0,10.92-7.56,10.92-13.92h0Z"/>
      <path class="st1" d="M394.27,105.51c0-3.84.84-9.36.84-25.8s-.36-21.48-.36-25.68c0-6.72,1.8-8.52,5.28-8.52,4.68,0,4.56,4.2,5.64,4.2,1.32,0,4.2-4.92,11.88-4.92,3.72,0,8.4,1.44,11.16,4.08.96.96,2.04,1.08,3.24.24,3.36-2.4,8.64-4.32,12.96-4.32,11.88,0,17.88,5.88,17.88,19.32,0,5.28-.36,12.72-.36,23.88,0,4.44.36,14.28.36,18.6,0,3.72-2.52,5.4-5.16,5.4-3.24,0-5.04-1.68-5.04-5.88.24-7.68.96-14.88.96-20.28,0-13.2-1.56-18.36-9.96-18.36s-10.08,8.64-10.08,15v5.52c0,4.44.36,14.28.36,18.6,0,3.72-2.04,5.4-4.68,5.4-3.24,0-5.52-1.68-5.52-5.88.24-7.68.72-14.88.72-20.28,0-13.2-.84-18.36-9.24-18.36-8.88,0-10.44,10.08-10.44,16.56,0,10.56.6,17.64.6,21.48s-.24,6.48-5.28,6.48c-3.96,0-5.76-2.4-5.76-6.48h0Z"/>
      <path class="st1" d="M466.87,105.51c0-3.84.84-9.36.84-25.8s-.36-21.48-.36-25.68c0-6.72,1.8-8.52,5.28-8.52,4.68,0,4.56,4.2,5.64,4.2,1.32,0,4.2-4.92,11.88-4.92,3.72,0,8.4,1.44,11.16,4.08.96.96,2.04,1.08,3.24.24,3.36-2.4,8.64-4.32,12.96-4.32,11.88,0,17.88,5.88,17.88,19.32,0,5.28-.36,12.72-.36,23.88,0,4.44.36,14.28.36,18.6,0,3.72-2.52,5.4-5.16,5.4-3.24,0-5.04-1.68-5.04-5.88.24-7.68.96-14.88.96-20.28,0-13.2-1.56-18.36-9.96-18.36s-10.08,8.64-10.08,15v5.52c0,4.44.36,14.28.36,18.6,0,3.72-2.04,5.4-4.68,5.4-3.24,0-5.52-1.68-5.52-5.88.24-7.68.72-14.88.72-20.28,0-13.2-.84-18.36-9.24-18.36-8.88,0-10.44,10.08-10.44,16.56,0,10.56.6,17.64.6,21.48s-.24,6.48-5.28,6.48c-3.96,0-5.76-2.4-5.76-6.48h0Z"/>
      <path class="st1" d="M538.99,77.8c0-26.52,11.88-33.24,21.48-33.24,10.32,0,16.92,7.32,16.92,16.92,0,8.76-5.64,16.56-13.8,16.56-6.6,0-10.56-4.2-10.56-7.44,0-2.04,1.56-5.16,3.36-5.16,1.92,0,3.96,2.76,7.2,2.76,3.48,0,5.64-3.24,5.64-6.36,0-4.44-4.32-6.96-7.32-6.96-8.4,0-12.6,6.84-12.6,18,0,9.84,3.36,15.24,12.84,15.24,10.32,0,9.48-6.96,12.84-6.96,2.4,0,3.24,7.44,3.24,11.52,0,13.56-7.44,19.44-19.32,19.44-15.96,0-19.92-14.88-19.92-34.32h0Z"/>
      <path class="st1" d="M582.31,103.59c0-6.84.72-14.4.48-25.32l-.48-21.72c-.12-7.32.84-11.88,4.8-11.88,3.6,0,5.88,1.44,5.88,9,0,.6,1.08-.96,2.4-2.76,2.04-2.88,4.68-5.04,8.16-5.04,5.28,0,7.32,4.08,7.32,7.92l-.12,12.12c0,2.52-.48,3.72-2.04,3.72s-2.76-2.76-6.96-2.76c-3.48,0-9.12,3.84-9.12,14.04,0,12.36.48,17.76.48,22.68,0,5.28-.6,8.4-4.92,8.4s-5.88-3.12-5.88-8.4Z"/>
    </g>
    <g>
      <path class="st1" d="M35.36,128.13h3.51l6.76,16.37h-3.79l-1.8-4.61h.07l-3.37-8.7h.52l-3.39,8.7h.07l-1.87,4.61h-3.62l6.92-16.37h-.01ZM33.33,138.19h7.34l.72,2.85h-8.72l.65-2.85h0Z"/>
      <path class="st1" d="M53.65,143.76c-1.36-.74-2.41-1.76-3.17-3.05-.76-1.29-1.13-2.75-1.13-4.37s.39-3.09,1.18-4.4,1.87-2.33,3.26-3.08c1.39-.74,2.95-1.11,4.68-1.11,1.04,0,2.02.13,2.94.37.91.25,1.64.58,2.19.98v3.3c-.56-.51-1.25-.92-2.07-1.22s-1.68-.44-2.58-.44c-1.17,0-2.21.24-3.11.71-.9.48-1.6,1.13-2.09,1.96s-.74,1.81-.74,2.91.23,2.03.69,2.87c.46.83,1.11,1.49,1.94,1.98.83.48,1.77.72,2.82.72.61,0,1.2-.08,1.78-.23.58-.16,1.08-.39,1.5-.7l-.82,1.33v-4.61h-3.48v-2.81h6.69v8.12c-.76.59-1.65,1.05-2.67,1.38-1.01.33-2.08.49-3.2.49-1.7,0-3.23-.37-4.58-1.11h-.03,0Z"/>
      <path class="st1" d="M65.95,128.13h8.86v2.92h-5.38v3.53h5.12v2.76h-5.12v4.23h5.64v2.92h-9.12v-16.37h0Z"/>
      <path class="st1" d="M76.71,128.13h3.32l8.91,11.79-.79-.37v-11.41h3.39v16.37h-3.35l-8.91-11.79.79.33v11.46h-3.37v-16.37h.01Z"/>
      <path class="st1" d="M93.79,128.13h8.86v2.92h-5.38v3.53h5.12v2.76h-5.12v4.23h5.64v2.92h-9.12v-16.37h0Z"/>
      <path class="st1" d="M104.55,128.13h5.38c1.04,0,1.98.2,2.8.61s1.46.97,1.92,1.7c.46.72.69,1.54.69,2.44s-.24,1.72-.73,2.43c-.48.72-1.14,1.28-1.98,1.68-.83.41-1.8.61-2.89.61h-.3l-1.36-1.54v-.96h1.52c.44,0,.82-.09,1.16-.27.34-.18.6-.43.78-.75.19-.32.28-.69.28-1.11,0-.61-.2-1.11-.61-1.5s-.94-.58-1.61-.58h-1.5v13.61h-3.56v-16.37h.01ZM107.66,135.73l3.74-.09,5.47,8.86h-4.02l-5.19-8.77Z"/>
      <path class="st1" d="M123.3,128.13h3.51l6.76,16.37h-3.79l-1.8-4.61h.07l-3.37-8.7h.52l-3.39,8.7h.07l-1.87,4.61h-3.62l6.92-16.37h-.01ZM121.27,138.19h7.34l.72,2.85h-8.72l.65-2.85s.01,0,0,0Z"/>
      <path class="st1" d="M135.54,131.24h-4.77v-3.11h13.1v3.11h-4.77v13.26h-3.56v-13.26Z"/>
      <path class="st1" d="M145.22,128.13h8.86v2.92h-5.38v3.53h5.12v2.76h-5.12v4.23h5.64v2.92h-9.12v-16.37h0Z"/>
      <path class="st1" d="M155.98,128.13h6.39c1.61,0,3.06.35,4.36,1.06s2.33,1.69,3.08,2.94,1.12,2.64,1.12,4.19-.37,2.94-1.12,4.19-1.78,2.23-3.09,2.94-2.78,1.06-4.4,1.06h-6.34v-16.37h0ZM164.77,140.76c.78-.44,1.39-1.04,1.84-1.82.44-.78.67-1.65.67-2.62s-.22-1.86-.67-2.63c-.44-.77-1.06-1.38-1.84-1.81-.78-.44-1.67-.65-2.67-.65h-2.57v10.2h2.57c1,0,1.89-.22,2.67-.65v-.02Z"/>
      <path class="st1" d="M174.85,128.13h3.81l3.46,12.51h-.89l4.3-12.51h2.99l4.14,12.49h-.89l3.53-12.49h3.56l-4.93,16.37h-3.35l-4.05-12.26h.7l-4.16,12.26h-3.32l-4.91-16.37h.01Z"/>
      <path class="st1" d="M203.14,144.01c-1.1-.58-1.96-1.38-2.58-2.4-.62-1.02-.94-2.17-.94-3.45v-10.03h3.56v9.85c0,.72.16,1.36.47,1.94s.75,1.02,1.31,1.33,1.2.47,1.92.47,1.33-.16,1.89-.47.99-.76,1.3-1.33c.3-.58.46-1.22.46-1.94v-9.85h3.56v10.03c0,1.28-.32,2.43-.95,3.45-.63,1.02-1.49,1.82-2.58,2.4-1.09.58-2.32.87-3.7.87s-2.61-.29-3.71-.87h0Z"/>
      <path class="st1" d="M216.18,128.13h3.32l8.91,11.79-.79-.37v-11.41h3.39v16.37h-3.35l-8.91-11.79.79.33v11.46h-3.37v-16.37h0Z"/>
      <path class="st1" d="M233.26,128.13h6.39c1.61,0,3.06.35,4.36,1.06s2.33,1.69,3.08,2.94,1.12,2.64,1.12,4.19-.37,2.94-1.12,4.19-1.78,2.23-3.09,2.94-2.78,1.06-4.4,1.06h-6.34v-16.37h0ZM242.05,140.76c.78-.44,1.39-1.04,1.84-1.82.44-.78.67-1.65.67-2.62s-.22-1.86-.67-2.63c-.44-.77-1.06-1.38-1.84-1.81-.78-.44-1.67-.65-2.67-.65h-2.57v10.2h2.57c1,0,1.89-.22,2.67-.65v-.02Z"/>
      <path class="st1" d="M249.81,128.13h8.86v2.92h-5.38v3.53h5.12v2.76h-5.12v4.23h5.64v2.92h-9.12v-16.37h0Z"/>
      <path class="st1" d="M260.57,128.13h5.38c1.04,0,1.98.2,2.8.61.82.41,1.46.97,1.92,1.7.46.72.69,1.54.69,2.44s-.24,1.72-.73,2.43c-.48.72-1.14,1.28-1.98,1.68-.83.41-1.8.61-2.89.61h-.3l-1.36-1.54v-.96h1.52c.44,0,.82-.09,1.16-.27.34-.18.6-.43.78-.75.19-.32.28-.69.28-1.11,0-.61-.2-1.11-.61-1.5-.41-.39-.94-.58-1.61-.58h-1.5v13.61h-3.56v-16.37h0ZM263.68,135.73l3.74-.09,5.47,8.86h-4.02l-5.19-8.77Z"/>
      <path class="st1" d="M273.91,128.13h3.56v16.37h-3.56v-16.37ZM277.02,135.78l5.59-7.65h4.05l-6.67,8.89.05-2.67,6.88,10.15h-4.16l-5.73-8.72h0Z"/>
      <path class="st1" d="M293.04,128.13h3.51l6.76,16.37h-3.79l-1.8-4.61h.07l-3.37-8.7h.52l-3.39,8.7h.07l-1.87,4.61h-3.62l6.92-16.37h-.01ZM291,138.19h7.34l.72,2.85h-8.72l.65-2.85h.01Z"/>
      <path class="st1" d="M305.27,128.13h3.63l5.12,10.99h-.68l5.15-10.99h3.62l1.8,16.37h-3.53l-1.36-12.56.7.73-4.75,10.27h-2.69l-4.7-10.27.68-.73-1.38,12.56h-3.44l1.82-16.37h.01Z"/>
      <path class="st1" d="M326.65,128.13h3.63l5.12,10.99h-.68l5.15-10.99h3.62l1.8,16.37h-3.53l-1.36-12.56.7.73-4.75,10.27h-2.69l-4.7-10.27.68-.73-1.38,12.56h-3.44l1.82-16.37h.01Z"/>
      <path class="st1" d="M346.88,128.13h8.86v2.92h-5.38v3.53h5.12v2.76h-5.12v4.23h5.64v2.92h-9.12v-16.37h0Z"/>
      <path class="st1" d="M357.64,128.13h5.38c1.04,0,1.98.2,2.8.61.82.41,1.46.97,1.92,1.7.46.72.69,1.54.69,2.44s-.24,1.72-.73,2.43c-.48.72-1.14,1.28-1.98,1.68-.83.41-1.8.61-2.89.61h-.3l-1.36-1.54v-.96h1.52c.44,0,.82-.09,1.16-.27.34-.18.6-.43.78-.75.19-.32.28-.69.28-1.11,0-.61-.2-1.11-.61-1.5-.41-.39-.94-.58-1.61-.58h-1.5v13.61h-3.56v-16.37h0ZM360.75,135.73l3.74-.09,5.47,8.86h-4.02l-5.19-8.77Z"/>
      <path class="st1" d="M378.79,143.75c-1.36-.75-2.44-1.78-3.22-3.09s-1.17-2.76-1.17-4.35.39-3.04,1.18-4.35c.79-1.31,1.86-2.34,3.22-3.09,1.36-.75,2.88-1.12,4.56-1.12s3.16.37,4.53,1.12c1.36.75,2.44,1.78,3.22,3.09s1.17,2.76,1.17,4.35-.39,3.04-1.17,4.35c-.78,1.31-1.85,2.34-3.22,3.09-1.36.75-2.87,1.12-4.53,1.12s-3.21-.37-4.57-1.12h0ZM386.05,141.03c.81-.46,1.45-1.1,1.91-1.93.46-.83.69-1.75.69-2.78s-.23-1.98-.69-2.8-1.1-1.46-1.91-1.92c-.81-.46-1.71-.69-2.69-.69s-1.92.23-2.72.69-1.43,1.1-1.89,1.93-.69,1.75-.69,2.78.23,1.98.7,2.8,1.1,1.46,1.89,1.92c.79.46,1.7.69,2.71.69s1.88-.23,2.69-.69Z"/>
      <path class="st1" d="M393.89,128.13h8.86v3.02h-5.31v3.6h5.05v2.95h-5.05v6.81h-3.56v-16.37h.01Z"/>
      <path class="st1" d="M408.04,128.13h6.39c1.61,0,3.06.35,4.36,1.06s2.33,1.69,3.08,2.94,1.12,2.64,1.12,4.19-.37,2.94-1.12,4.19-1.78,2.23-3.09,2.94-2.78,1.06-4.4,1.06h-6.34v-16.37h0ZM416.83,140.76c.78-.44,1.39-1.04,1.84-1.82.44-.78.67-1.65.67-2.62s-.22-1.86-.67-2.63c-.44-.77-1.06-1.38-1.84-1.81-.78-.44-1.67-.65-2.67-.65h-2.57v10.2h2.57c1,0,1.89-.22,2.67-.65v-.02Z"/>
      <path class="st1" d="M428.33,143.75c-1.36-.75-2.44-1.78-3.22-3.09s-1.17-2.76-1.17-4.35.39-3.04,1.18-4.35c.79-1.31,1.86-2.34,3.22-3.09,1.36-.75,2.88-1.12,4.56-1.12s3.16.37,4.53,1.12c1.36.75,2.44,1.78,3.22,3.09s1.17,2.76,1.17,4.35-.39,3.04-1.17,4.35c-.78,1.31-1.85,2.34-3.22,3.09-1.36.75-2.87,1.12-4.53,1.12s-3.21-.37-4.57-1.12h0ZM435.59,141.03c.81-.46,1.45-1.1,1.91-1.93.46-.83.69-1.75.69-2.78s-.23-1.98-.69-2.8-1.1-1.46-1.91-1.92c-.81-.46-1.71-.69-2.69-.69s-1.92.23-2.72.69-1.43,1.1-1.89,1.93-.69,1.75-.69,2.78.23,1.98.7,2.8,1.1,1.46,1.89,1.92c.79.46,1.7.69,2.71.69s1.88-.23,2.69-.69Z"/>
      <path class="st1" d="M446.81,144.01c-1.1-.58-1.96-1.38-2.58-2.4-.62-1.02-.94-2.17-.94-3.45v-10.03h3.56v9.85c0,.72.16,1.36.47,1.94s.75,1.02,1.31,1.33,1.2.47,1.92.47,1.33-.16,1.89-.47.99-.76,1.3-1.33c.3-.58.46-1.22.46-1.94v-9.85h3.56v10.03c0,1.28-.32,2.43-.95,3.45s-1.49,1.82-2.58,2.4c-1.09.58-2.32.87-3.7.87s-2.61-.29-3.71-.87h-.01Z"/>
      <path class="st1" d="M459.85,128.13h5.45c1.03,0,1.94.18,2.75.54.8.36,1.43.86,1.87,1.51s.67,1.37.67,2.16-.24,1.59-.73,2.28c-.48.69-1.11,1.16-1.87,1.39.86.22,1.56.67,2.11,1.37.55.69.82,1.52.82,2.47,0,.89-.25,1.68-.74,2.39s-1.18,1.26-2.06,1.66-1.87.61-2.96.61h-5.31v-16.37h0ZM466.12,134.65c.36-.17.64-.42.83-.74.2-.32.29-.68.29-1.09,0-.58-.21-1.06-.63-1.44s-.97-.57-1.66-.57h-1.61v4.09h1.57c.45,0,.86-.09,1.22-.26h-.01ZM466.2,141.52c.38-.2.68-.46.89-.8.21-.34.32-.71.32-1.13,0-.62-.23-1.15-.69-1.57-.46-.42-1.06-.63-1.79-.63h-1.59v4.42h1.57c.48,0,.92-.1,1.3-.29h-.01Z"/>
      <path class="st1" d="M475.82,131.24h-4.77v-3.11h13.1v3.11h-4.77v13.26h-3.56v-13.26h0Z"/>
      <path class="st1" d="M485.5,128.13h8.86v3.02h-5.31v3.6h5.05v2.95h-5.05v6.81h-3.56v-16.37h.01Z"/>
      <path class="st1" d="M499.27,144.01c-1.1-.58-1.96-1.38-2.58-2.4-.62-1.02-.94-2.17-.94-3.45v-10.03h3.56v9.85c0,.72.16,1.36.47,1.94s.75,1.02,1.31,1.33,1.2.47,1.92.47,1.33-.16,1.89-.47.99-.76,1.3-1.33c.3-.58.46-1.22.46-1.94v-9.85h3.56v10.03c0,1.28-.32,2.43-.95,3.45s-1.49,1.82-2.58,2.4c-1.09.58-2.32.87-3.7.87s-2.61-.29-3.71-.87h-.01Z"/>
      <path class="st1" d="M512.31,128.13h3.56v13.26h5.57v3.11h-9.12v-16.37h-.01Z"/>
      <path class="st1" d="M530.17,143.75c-1.36-.75-2.44-1.78-3.22-3.09-.78-1.31-1.17-2.76-1.17-4.35s.39-3.04,1.18-4.35c.79-1.31,1.86-2.34,3.22-3.09s2.88-1.12,4.56-1.12,3.16.37,4.53,1.12c1.36.75,2.44,1.78,3.22,3.09.78,1.31,1.17,2.76,1.17,4.35s-.39,3.04-1.17,4.35c-.78,1.31-1.85,2.34-3.22,3.09-1.36.75-2.87,1.12-4.53,1.12s-3.21-.37-4.57-1.12ZM537.43,141.03c.81-.46,1.45-1.1,1.91-1.93.46-.83.69-1.75.69-2.78s-.23-1.98-.69-2.8-1.1-1.46-1.91-1.92c-.81-.46-1.71-.69-2.69-.69s-1.92.23-2.72.69-1.43,1.1-1.89,1.93-.69,1.75-.69,2.78.23,1.98.7,2.8c.47.82,1.1,1.46,1.89,1.92.79.46,1.7.69,2.71.69s1.88-.23,2.69-.69h0Z"/>
      <path class="st1" d="M545.26,128.13h5.45c1.03,0,1.94.18,2.75.54.8.36,1.43.86,1.87,1.51s.67,1.37.67,2.16-.24,1.59-.73,2.28c-.48.69-1.11,1.16-1.87,1.39.86.22,1.56.67,2.11,1.37.55.69.82,1.52.82,2.47,0,.89-.25,1.68-.74,2.39s-1.18,1.26-2.06,1.66-1.87.61-2.96.61h-5.31v-16.37h0ZM551.53,134.65c.36-.17.64-.42.83-.74.2-.32.29-.68.29-1.09,0-.58-.21-1.06-.63-1.44s-.97-.57-1.66-.57h-1.61v4.09h1.57c.45,0,.86-.09,1.22-.26h-.01ZM551.61,141.52c.38-.2.68-.46.89-.8s.32-.71.32-1.13c0-.62-.23-1.15-.69-1.57-.46-.42-1.06-.63-1.79-.63h-1.59v4.42h1.57c.48,0,.92-.1,1.3-.29h-.01Z"/>
      <path class="st1" d="M557.82,144.59c-.42-.09-.8-.22-1.12-.37v-3.04c.22.17.45.3.7.39s.52.13.82.13c.65,0,1.15-.2,1.49-.6.34-.4.5-.97.5-1.72v-11.25h3.58v11.46c0,1.04-.19,1.95-.57,2.72s-.92,1.37-1.63,1.79c-.7.42-1.53.63-2.48.63-.44,0-.87-.05-1.29-.14h0Z"/>
      <path class="st1" d="M565.96,128.13h8.86v2.92h-5.38v3.53h5.12v2.76h-5.12v4.23h5.64v2.92h-9.12v-16.37h0Z"/>
      <path class="st1" d="M580.14,143.72c-1.34-.74-2.39-1.76-3.16-3.05-.76-1.29-1.15-2.74-1.15-4.33s.38-3.04,1.15-4.34,1.82-2.33,3.16-3.08c1.34-.75,2.84-1.12,4.49-1.12.67,0,1.3.06,1.88.18.58.12,1.09.29,1.51.53v3.18c-.36-.26-.8-.47-1.33-.62s-1.08-.22-1.66-.22c-1.06,0-2.01.24-2.84.71-.83.48-1.49,1.13-1.98,1.96-.48.83-.73,1.77-.73,2.8s.24,1.98.73,2.81c.48.83,1.14,1.48,1.98,1.95.83.48,1.78.71,2.84.71.58,0,1.13-.07,1.66-.22.53-.15.97-.35,1.33-.62v3.18c-.42.23-.92.41-1.51.53s-1.21.18-1.88.18c-1.65,0-3.15-.37-4.49-1.11h0Z"/>
      <path class="st1" d="M593.49,131.24h-4.77v-3.11h13.1v3.11h-4.77v13.26h-3.56v-13.26h0Z"/>
      <path class="st1" d="M603.02,144.61c-.49-.12-.93-.28-1.32-.48v-3.02c.28.2.62.37,1.02.49.4.13.78.19,1.16.19.73,0,1.33-.18,1.79-.54.46-.36.69-.83.69-1.4,0-.3-.06-.59-.19-.88-.13-.29-.35-.63-.68-1.04l-1.4-1.61c-.5-.59-.87-1.18-1.1-1.78-.23-.59-.35-1.21-.35-1.85,0-.92.23-1.75.69-2.48s1.1-1.31,1.93-1.73,1.75-.63,2.78-.63c.55,0,1.07.06,1.57.18.5.12.92.28,1.26.48v3.09c-.3-.23-.64-.42-1.04-.56s-.8-.21-1.2-.21c-.72,0-1.3.17-1.74.5-.44.34-.67.78-.67,1.34,0,.3.07.6.21.9.14.3.37.63.68.97l1.4,1.61c.51.58.89,1.16,1.13,1.74s.36,1.2.36,1.86c0,.95-.23,1.81-.7,2.57-.47.76-1.12,1.36-1.95,1.8s-1.77.65-2.82.65c-.52,0-1.02-.06-1.51-.18v.02h0Z"/>
    </g>
  </g>
  <path class="st0" d="M603.36,172.75h35.55v-37.47s-35.55,38.37-35.55,37.47Z"/>
</svg>